<?xml version="1.0" encoding="UTF-8"?>
<!DOCTYPE svg PUBLIC "-//W3C//DTD SVG 1.1//EN" "http://www.w3.org/Graphics/SVG/1.1/DTD/svg11.dtd">
<!-- Creator: CorelDRAW X7 -->
<svg xmlns="http://www.w3.org/2000/svg" xml:space="preserve" width="500px" height="400px" version="1.1" style="shape-rendering:geometricPrecision; text-rendering:geometricPrecision; image-rendering:optimizeQuality; fill-rule:evenodd; clip-rule:evenodd"
viewBox="0 0 500 400"
 xmlns:xlink="http://www.w3.org/1999/xlink">
 <defs>
  <style type="text/css">
   <![CDATA[
    .str0 {stroke:currentColor;stroke-width:0.900003}
    .fil0 {fill:white}
   ]]>
  </style>
 </defs>
 <g id="Layer_x0020_1">
  <metadata id="CorelCorpID_0Corel-Layer"/>
  <path class="fil0 str0" d="M105 209c-23,26 -21,65 4,88 25,23 65,21 88,-5l67 -74c15,-17 19,-41 12,-61l28 -31c21,37 18,85 -12,118l-67 74c-37,41 -100,44 -141,7l0 0c-41,-37 -44,-100 -8,-141l67 -74c29,-32 75,-41 113,-26l-29 32c-20,-3 -41,3 -55,19l-67 74zm131 -27c-15,17 -19,41 -12,61l-28 31c-21,-37 -18,-85 12,-118l67 -74c37,-41 100,-44 141,-7l0 0c41,37 44,100 8,141l-67 74c-29,32 -75,41 -113,26l29 -32c20,3 41,-3 55,-19l67 -74c23,-26 21,-65 -4,-88 -25,-23 -65,-21 -88,5l-67 74z"/>
 </g>
</svg>
