<?xml version="1.0" encoding="UTF-8"?>
<!DOCTYPE svg PUBLIC "-//W3C//DTD SVG 1.1//EN" "http://www.w3.org/Graphics/SVG/1.1/DTD/svg11.dtd">
<!-- Creator: CorelDRAW X7 -->
<svg xmlns="http://www.w3.org/2000/svg" xml:space="preserve" width="700px" height="200px" version="1.1" style="shape-rendering:geometricPrecision; text-rendering:geometricPrecision; image-rendering:optimizeQuality; fill-rule:evenodd; clip-rule:evenodd"
viewBox="0 0 700 200"
 xmlns:xlink="http://www.w3.org/1999/xlink">
 <defs>
  <style type="text/css">
   <![CDATA[
    .str0 {stroke:currentColor;stroke-width:0.900001}
    .fil0 {fill:currentColor;fill-rule:nonzero}
   ]]>
  </style>
 </defs>
 <g id="Layer_x0020_1">
  <metadata id="CorelCorpID_0Corel-Layer"/>
  <path class="fil0 str0" d="M163 53c-3,2 -3,6 -2,9l-5 5c-3,-6 -3,-13 2,-19l11 -12c6,-6 16,-7 23,-1l0 0c6,6 7,16 1,23l-11 12c-4,5 -12,7 -18,4l5 -5c3,1 6,0 9,-3l10 -12c4,-4 4,-11 0,-14 -4,-4 -11,-3 -14,1l-11 12zm-21 4c-4,4 -4,10 0,14 4,4 11,3 14,-1l11 -12c3,-2 3,-6 2,-9l5 -5c3,5 3,13 -2,19l-11 11c-6,7 -16,8 -23,2l0 0c-6,-6 -7,-16 -1,-23l11 -12c4,-5 12,-7 18,-4l-5 5c-3,-1 -6,0 -9,3l-10 12z"/>
  <path class="fil0 str0" d="M90 151l49 0 0 16 -70 0 0 -108 21 0 0 92zm84 16l-21 0 0 -80 21 0 0 80zm38 -80l1 12c2,-4 6,-8 9,-10 4,-2 9,-3 14,-3 8,0 14,2 19,8 4,5 6,13 6,24l0 49 -21 0 0 -49c0,-5 -1,-10 -3,-12 -2,-2 -5,-4 -9,-4 -4,0 -6,1 -9,2 -2,2 -4,3 -6,5l0 58 -21 0 0 -80 20 0zm93 47l-6 0 0 33 -21 0 0 -115 21 0 0 65 5 0 19 -30 25 0 -26 37 30 43 -25 0 -22 -33zm87 35c-12,0 -21,-4 -28,-11 -7,-7 -10,-17 -10,-28l0 -3c0,-12 3,-22 10,-30 6,-8 15,-11 27,-11 10,0 19,3 24,10 6,6 9,15 9,26l0 11 -48 0 0 1c0,5 2,10 5,13 3,4 7,5 13,5 5,0 9,0 13,-1 3,-1 6,-3 10,-5l6 14c-3,2 -8,4 -13,6 -6,2 -12,3 -18,3zm-1 -67c-5,0 -8,2 -10,5 -3,3 -4,7 -5,12l0 0 27 0 0 -2c0,-4 -1,-8 -3,-11 -2,-2 -5,-4 -9,-4zm88 4l-8 0c-3,0 -6,0 -8,2 -2,1 -4,3 -5,5l0 54 -21 0 0 -80 20 0 1 12c1,-4 4,-7 7,-10 3,-2 6,-3 10,-3 1,0 2,0 3,0 1,0 2,0 3,1l-2 19z"/>
  <g>
   <path class="fil0 str0" d="M549 143l8 24 12 0 -31 -95 -10 0 -31 95 12 0 8 -24 32 0zm-29 -11l13 -42 13 42 -26 0zm53 -60l0 10 23 0 0 75 -23 0 0 10 58 0 0 -10 -23 0 0 -75 23 0 0 -10 -58 0z"/>
  </g>
  <g>
   <path class="fil0 str0" d="M472 160c0,2 1,4 2,6 2,2 4,3 8,3 3,0 5,-1 7,-3 1,-2 2,-4 2,-6 0,-3 -1,-5 -2,-7 -2,-2 -4,-3 -7,-3 -4,0 -6,1 -8,3 -1,2 -2,4 -2,7z"/>
  </g>
 </g>
</svg>
