<?xml version="1.0" encoding="UTF-8"?>
<!DOCTYPE svg PUBLIC "-//W3C//DTD SVG 1.1//EN" "http://www.w3.org/Graphics/SVG/1.1/DTD/svg11.dtd">
<!-- Creator: CorelDRAW X7 -->
<svg xmlns="http://www.w3.org/2000/svg" xml:space="preserve" width="3500px" height="3500px" version="1.1" style="shape-rendering:geometricPrecision; text-rendering:geometricPrecision; image-rendering:optimizeQuality; fill-rule:evenodd; clip-rule:evenodd"
viewBox="0 0 3500 3500"
 xmlns:xlink="http://www.w3.org/1999/xlink">
 <defs>
  <style type="text/css">
   <![CDATA[
    .str0 {stroke:black;stroke-width:1.99961}
    .str6 {stroke:black;stroke-width:3}
    .str7 {stroke:red;stroke-width:3}
    .str1 {stroke:black;stroke-width:0.9}
    .str2 {stroke:black;stroke-width:3.99921;stroke-linecap:round;stroke-linejoin:round}
    .str5 {stroke:black;stroke-width:4.99961;stroke-linecap:round;stroke-linejoin:round}
    .str3 {stroke:yellow;stroke-width:4.99961;stroke-linecap:round;stroke-linejoin:round}
    .str4 {stroke:white;stroke-width:4.99961;stroke-linecap:round;stroke-linejoin:round}
    .fil4 {fill:none;fill-rule:nonzero}
    .fil0 {fill:black}
    .fil9 {fill:#4D4D4D}
    .fil1 {fill:gray}
    .fil12 {fill:#999999}
    .fil14 {fill:#CCCCCC}
    .fil7 {fill:red}
    .fil8 {fill:yellow}
    .fil5 {fill:white}
    .fil2 {fill:black;fill-rule:nonzero}
    .fil11 {fill:#4D4D4D;fill-rule:nonzero}
    .fil13 {fill:#999999;fill-rule:nonzero}
    .fil3 {fill:red;fill-rule:nonzero}
    .fil10 {fill:yellow;fill-rule:nonzero}
    .fil6 {fill:white;fill-rule:nonzero}
   ]]>
  </style>
 </defs>
 <g id="Layer_x0020_1">
  <metadata id="CorelCorpID_0Corel-Layer"/>
  <rect class="fil0" x="1040" y="1129" width="781" height="756"/>
  <path class="fil1" d="M1950 1326c-23,25 -21,65 4,87 25,23 65,21 88,-4l67 -75c15,-17 19,-40 12,-61l28 -31c21,37 18,85 -12,118l-67 74c-37,41 -100,44 -141,8l0 0c-41,-37 -44,-101 -8,-142l67 -74c29,-32 75,-41 113,-26l-29 32c-20,-3 -41,3 -55,19l-67 75zm131 -28c-15,17 -19,41 -12,61l-28 31c-21,-36 -18,-84 12,-117l67 -75c37,-40 100,-44 141,-7l0 0c41,37 44,100 8,141l-67 75c-29,32 -75,41 -113,25l29 -31c20,3 41,-4 55,-20l67 -74c23,-25 21,-65 -4,-88 -25,-22 -65,-20 -88,5l-67 74z"/>
  <g id="_2900965801056">
   <path class="fil2" d="M496 1668c-3,2 -3,6 -2,10l-5 5c-3,-6 -3,-14 2,-19l11 -12c6,-7 16,-8 23,-2l0 0c6,6 7,17 1,23l-11 12c-4,5 -12,7 -18,4l5 -5c3,1 6,0 9,-3l10 -12c4,-4 4,-10 0,-14 -4,-4 -11,-3 -14,1l-11 12zm-21 4c-4,4 -4,11 0,14 4,4 11,4 14,0l11 -12c3,-3 3,-7 2,-10l5 -5c3,6 3,13 -2,19l-11 12c-6,6 -16,7 -23,1l0 0c-6,-6 -7,-16 -1,-23l11 -12c4,-5 12,-7 18,-4l-5 5c-3,0 -6,1 -9,3l-10 12z"/>
   <path class="fil3" d="M423 1766l49 0 0 16 -70 0 0 -107 21 0 0 91zm84 16l-21 0 0 -80 21 0 0 80zm38 -80l1 12c2,-4 6,-7 10,-10 3,-2 8,-3 13,-3 8,0 14,2 19,8 4,5 6,13 6,24l0 49 -21 0 0 -49c0,-5 -1,-9 -3,-12 -2,-2 -5,-3 -9,-3 -4,0 -6,0 -9,1 -2,2 -4,3 -6,5l0 58 -21 0 0 -80 20 0zm93 47l-6 0 0 33 -21 0 0 -115 21 0 0 65 5 0 19 -30 25 0 -26 37 30 43 -25 0 -22 -33zm87 35c-12,0 -21,-4 -28,-11 -7,-7 -10,-17 -10,-28l0 -3c0,-12 3,-22 10,-30 6,-7 15,-11 27,-11 10,0 19,3 24,10 6,6 9,15 9,26l0 12 -48 0 0 0c0,5 2,10 5,13 3,4 7,5 13,5 5,0 9,0 13,-1 3,-1 7,-3 10,-5l6 14c-3,2 -8,5 -13,6 -6,2 -12,3 -18,3zm-1 -66c-5,0 -8,1 -10,4 -3,3 -4,7 -5,12l0 0 27 0 0 -1c0,-5 -1,-9 -3,-11 -2,-3 -5,-4 -9,-4zm88 3l-8 0c-3,0 -6,0 -8,2 -2,1 -4,3 -5,5l0 54 -21 0 0 -80 20 0 1 12c1,-4 4,-7 7,-10 3,-2 6,-3 10,-3 1,0 2,0 3,0 1,0 2,0 3,1l-2 19z"/>
   <path class="fil2" d="M882 1758l8 25 12 0 -31 -96 -10 0 -31 96 12 0 8 -25 32 0zm-29 -11l13 -41 13 41 -26 0zm53 -60l0 10 23 0 0 75 -23 0 0 11 58 0 0 -11 -23 0 0 -75 23 0 0 -10 -58 0z"/>
   <path class="fil4 str0" d="M805 1775c0,2 1,4 2,6 2,2 4,3 8,3 3,0 5,-1 7,-3 1,-2 2,-4 2,-6 0,-3 -1,-5 -2,-7 -2,-2 -4,-3 -7,-3 -4,0 -6,1 -8,3 -1,2 -2,4 -2,7z"/>
  </g>
  <polygon class="fil5 str1" points="345,492 1258,492 1258,775 345,775 "/>
  <polygon class="fil0" points="345,178 1258,178 1258,462 345,462 "/>
  <g id="_2900965800000">
   <g>
    <g>
     <path class="fil4 str2" d="M1070 366l0 -102 10 0 0 40c2,-4 5,-6 9,-8 4,-2 9,-3 15,-3 9,0 16,2 20,6 3,4 5,10 5,20l0 47 -10 0 0 -45c0,-7 -1,-12 -4,-15 -2,-2 -6,-3 -12,-3 -8,0 -14,2 -17,5 -4,3 -5,9 -5,16l0 42 -11 0zm-278 0l0 -72 10 0 0 10c2,-4 4,-6 8,-8 4,-2 9,-3 15,-3 10,0 17,2 20,6 4,4 6,10 6,20l0 47 -11 0 0 -45c0,-7 -1,-12 -3,-15 -2,-2 -6,-3 -13,-3 -7,0 -13,2 -16,5 -4,3 -6,9 -6,16l0 42 -10 0zm-145 0l0 -72 10 0 0 10c2,-4 5,-6 9,-8 3,-2 9,-3 15,-3 9,0 16,2 20,6 3,4 5,10 5,20l0 47 -10 0 0 -45c0,-7 -1,-12 -4,-15 -2,-2 -6,-3 -13,-3 -7,0 -13,2 -16,5 -4,3 -5,9 -5,16l0 42 -11 0zm-145 -21l11 0 0 1c0,5 1,8 4,10 3,1 8,2 16,2 10,0 15,-1 17,-2 3,-2 4,-5 4,-10 0,-5 -1,-8 -3,-10 -2,-1 -6,-2 -13,-3 -3,0 -6,0 -11,0 -9,0 -15,-1 -17,-2 -3,-2 -5,-4 -6,-6 -1,-3 -1,-6 -1,-11 0,-8 2,-14 6,-17 4,-2 13,-4 26,-4 11,0 18,2 22,4 4,3 6,8 6,14l-11 0 0 0c0,-3 -1,-6 -4,-7 -3,-1 -8,-2 -16,-2 -8,0 -13,1 -15,2 -3,2 -4,5 -4,10 0,2 0,4 1,6 0,1 1,2 2,2 2,1 7,2 14,2 2,0 4,0 5,0 6,1 10,1 14,1 3,1 6,1 7,2 3,1 6,3 7,6 1,3 2,7 2,12 0,5 -1,9 -2,12 -1,3 -4,5 -7,7 -2,1 -4,2 -8,3 -3,0 -8,0 -14,0 -13,0 -22,-1 -26,-4 -4,-3 -6,-9 -6,-16l0 -2zm84 49l-23 0 0 -10 23 0c4,0 7,-1 9,-5 1,-1 2,-3 3,-5l1 -3 -7 -19 -20 -58 11 0 21 62 21 -62 11 0 -27 79c-3,8 -6,14 -9,17 -3,2 -6,4 -10,4 -1,0 -3,0 -4,0zm154 -91c-7,0 -12,6 -12,13l0 28c0,7 5,13 12,13l18 0c7,0 13,-6 13,-13l0 -28c0,-7 -6,-13 -13,-13l-18 0zm0 -10l18 0c12,0 23,10 23,23l0 28c0,13 -11,23 -23,23l-18 0c-12,0 -22,-10 -22,-23l0 -28c0,-13 10,-23 22,-23zm205 10l17 0c7,0 13,6 13,13l0 6 -43 0 0 -6c0,-7 5,-13 13,-13zm30 39l0 2c0,7 -6,13 -13,13l-17 0c-8,0 -13,-6 -13,-13l0 -12 10 0 33 0 10 0 0 -16c0,-13 -11,-23 -23,-23l-17 0c-13,0 -23,10 -23,23l0 28c0,13 10,23 23,23l17 0c12,0 23,-10 23,-23l0 -2 -10 0zm44 -39l17 0c7,0 13,6 13,13l0 4 10 0 0 -4c0,-13 -10,-23 -23,-23l-17 0c-13,0 -23,10 -23,23l0 28c0,13 10,23 23,23l17 0c13,0 23,-10 23,-23l0 -4 -10 0 0 4c0,7 -6,13 -13,13l-17 0c-7,0 -13,-6 -13,-13l0 -28c0,-7 6,-13 13,-13zm-145 -25l0 15 -12 0 0 11 12 0 0 62 10 0 0 -62 29 0 0 -11 -29 0 0 -15 -10 0z"/>
     <path id="1" class="fil6" d="M1070 366l0 -102 10 0 0 40c2,-4 5,-6 9,-8 4,-2 9,-3 15,-3 9,0 16,2 20,6 3,4 5,10 5,20l0 47 -10 0 0 -45c0,-7 -1,-12 -4,-15 -2,-2 -6,-3 -12,-3 -8,0 -14,2 -17,5 -4,3 -5,9 -5,16l0 42 -11 0zm-278 0l0 -72 10 0 0 10c2,-4 4,-6 8,-8 4,-2 9,-3 15,-3 10,0 17,2 20,6 4,4 6,10 6,20l0 47 -11 0 0 -45c0,-7 -1,-12 -3,-15 -2,-2 -6,-3 -13,-3 -7,0 -13,2 -16,5 -4,3 -6,9 -6,16l0 42 -10 0zm-145 0l0 -72 10 0 0 10c2,-4 5,-6 9,-8 3,-2 9,-3 15,-3 9,0 16,2 20,6 3,4 5,10 5,20l0 47 -10 0 0 -45c0,-7 -1,-12 -4,-15 -2,-2 -6,-3 -13,-3 -7,0 -13,2 -16,5 -4,3 -5,9 -5,16l0 42 -11 0zm-145 -21l11 0 0 1c0,5 1,8 4,10 3,1 8,2 16,2 10,0 15,-1 17,-2 3,-2 4,-5 4,-10 0,-5 -1,-8 -3,-10 -2,-1 -6,-2 -13,-3 -3,0 -6,0 -11,0 -9,0 -15,-1 -17,-2 -3,-2 -5,-4 -6,-6 -1,-3 -1,-6 -1,-11 0,-8 2,-14 6,-17 4,-2 13,-4 26,-4 11,0 18,2 22,4 4,3 6,8 6,14l-11 0 0 0c0,-3 -1,-6 -4,-7 -3,-1 -8,-2 -16,-2 -8,0 -13,1 -15,2 -3,2 -4,5 -4,10 0,2 0,4 1,6 0,1 1,2 2,2 2,1 7,2 14,2 2,0 4,0 5,0 6,1 10,1 14,1 3,1 6,1 7,2 3,1 6,3 7,6 1,3 2,7 2,12 0,5 -1,9 -2,12 -1,3 -4,5 -7,7 -2,1 -4,2 -8,3 -3,0 -8,0 -14,0 -13,0 -22,-1 -26,-4 -4,-3 -6,-9 -6,-16l0 -2zm84 49l-23 0 0 -10 23 0c4,0 7,-1 9,-5 1,-1 2,-3 3,-5l1 -3 -7 -19 -20 -58 11 0 21 62 21 -62 11 0 -27 79c-3,8 -6,14 -9,17 -3,2 -6,4 -10,4 -1,0 -3,0 -4,0zm154 -91c-7,0 -12,6 -12,13l0 28c0,7 5,13 12,13l18 0c7,0 13,-6 13,-13l0 -28c0,-7 -6,-13 -13,-13l-18 0zm0 -10l18 0c12,0 23,10 23,23l0 28c0,13 -11,23 -23,23l-18 0c-12,0 -22,-10 -22,-23l0 -28c0,-13 10,-23 22,-23zm205 10l17 0c7,0 13,6 13,13l0 6 -43 0 0 -6c0,-7 5,-13 13,-13zm30 39l0 2c0,7 -6,13 -13,13l-17 0c-8,0 -13,-6 -13,-13l0 -12 10 0 33 0 10 0 0 -16c0,-13 -11,-23 -23,-23l-17 0c-13,0 -23,10 -23,23l0 28c0,13 10,23 23,23l17 0c12,0 23,-10 23,-23l0 -2 -10 0zm44 -39l17 0c7,0 13,6 13,13l0 4 10 0 0 -4c0,-13 -10,-23 -23,-23l-17 0c-13,0 -23,10 -23,23l0 28c0,13 10,23 23,23l17 0c13,0 23,-10 23,-23l0 -4 -10 0 0 4c0,7 -6,13 -13,13l-17 0c-7,0 -13,-6 -13,-13l0 -28c0,-7 6,-13 13,-13zm-145 -25l0 15 -12 0 0 11 12 0 0 62 10 0 0 -62 29 0 0 -11 -29 0 0 -15 -10 0z"/>
    </g>
    <path class="fil3" d="M475 270c0,2 1,4 2,5 1,2 3,2 5,2 3,0 4,0 5,-1 1,-1 1,-3 1,-6l0 -4c0,-3 0,-5 -1,-6 -1,-1 -2,-1 -5,-1 -2,0 -4,0 -5,1 -1,2 -2,3 -2,6l0 4zm240 12l-1 -2 -1 -3 0 0 -7 -21 3 0 8 21 7 -21 3 0 -9 26c-1,3 -2,5 -3,6 -1,1 -2,2 -4,2 0,0 -1,0 -1,0 0,0 -1,-1 -1,-1l0 -3c0,0 0,0 0,0 1,0 1,0 1,0 1,0 2,0 3,0 0,-1 1,-2 1,-3l1 -1zm-244 -26l4 0 0 4c1,-2 1,-3 3,-4 1,0 3,-1 5,-1 3,0 6,1 7,3 1,1 2,3 2,7l0 6c0,3 -1,6 -2,7 -1,2 -4,2 -7,2 -2,0 -4,0 -5,0 -1,-1 -2,-2 -3,-3l0 12 -4 0 0 -33zm44 14l0 -4c0,-3 0,-5 -1,-6 -1,-1 -2,-1 -5,-1l-2 0c-2,0 -4,0 -5,1 0,1 -1,3 -1,6l0 4c0,3 1,5 1,6 1,1 3,1 5,1l2 0c3,0 4,0 5,-1 1,-1 1,-3 1,-6zm-8 10c-3,0 -6,0 -7,-2 -2,-1 -2,-4 -2,-7l0 -6c0,-4 0,-6 2,-7 1,-2 4,-3 7,-3l2 0c4,0 6,1 8,3 1,1 2,3 2,7l0 6c0,3 -1,6 -2,7 -2,2 -4,2 -8,2l-2 0zm16 -24l3 0 6 21 6 -21 5 0 5 21 6 -21 3 0 -6 24 -5 0 -6 -21 -6 21 -5 0 -6 -24zm42 10l14 0 0 -1c0,-3 -1,-4 -1,-5 -1,-1 -3,-1 -5,-1l-2 0c-2,0 -4,0 -5,1 -1,1 -1,2 -1,5l0 1zm6 14c-4,0 -6,0 -8,-2 -1,-1 -2,-4 -2,-7l0 -6c0,-4 1,-6 2,-7 2,-2 4,-3 8,-3l2 0c3,0 6,1 7,3 2,1 3,3 3,7l0 4 -18 0c0,0 0,0 0,1 0,0 0,0 0,1 0,2 0,4 1,5 1,1 3,1 5,1l2 0c2,0 3,0 4,-1 1,0 2,-1 2,-3l4 0c-1,3 -2,4 -3,6 -2,1 -4,1 -7,1l-2 0zm18 0l0 -24 4 0 0 3c0,-1 1,-2 2,-3 1,0 2,-1 4,-1 3,0 5,1 6,2 1,2 1,4 1,7l0 0 -3 0 0 0c0,-2 -1,-4 -1,-4 -1,-1 -2,-1 -4,-1 -2,0 -3,0 -4,1 -1,2 -1,3 -1,6l0 14 -4 0zm25 -14l14 0 0 -1c0,-3 -1,-4 -1,-5 -1,-1 -3,-1 -5,-1l-2 0c-2,0 -4,0 -5,1 -1,1 -1,2 -1,5l0 1zm6 14c-4,0 -6,0 -8,-2 -1,-1 -2,-4 -2,-7l0 -6c0,-4 1,-6 2,-7 2,-2 4,-3 8,-3l2 0c3,0 6,1 7,3 2,1 2,3 2,7l0 4 -17 0c0,0 0,0 0,1 0,0 0,0 0,1 0,2 0,4 1,5 1,1 3,1 5,1l2 0c2,0 3,0 4,-1 1,0 2,-1 2,-3l3 0c0,3 -1,4 -2,6 -2,1 -4,1 -7,1l-2 0zm34 -10l0 -4c0,-3 -1,-4 -2,-6 -1,-1 -3,-1 -5,-1 -3,0 -4,0 -5,1 -1,1 -1,3 -1,6l0 4c0,3 0,5 1,6 1,1 2,1 5,1 2,0 4,0 5,-2 1,-1 2,-3 2,-5zm0 6c0,2 -1,3 -3,3 -1,1 -2,1 -5,1 -3,0 -5,0 -7,-2 -1,-1 -2,-4 -2,-7l0 -6c0,-3 1,-6 2,-7 2,-2 4,-3 7,-3 2,0 4,1 5,1 1,1 2,2 3,3l0 -13 4 0 0 34 -4 0 0 -4zm31 -10l0 4c0,2 0,4 2,5 1,2 3,2 5,2 3,0 4,0 5,-1 1,-1 1,-3 1,-6l0 -4c0,-3 0,-5 -1,-6 -1,-1 -2,-1 -5,-1 -2,0 -4,0 -5,1 -2,2 -2,3 -2,6zm-4 14l0 -34 4 0 0 13c1,-1 1,-2 3,-3 1,0 2,-1 4,-1 4,0 6,1 8,3 1,1 2,3 2,7l0 6c0,3 -1,6 -2,7 -2,2 -4,2 -8,2 -2,0 -3,0 -5,-1 -1,0 -2,-1 -2,-3l0 4 -4 0z"/>
   </g>
   <path class="fil7" d="M473 223l657 0c23,0 42,18 42,41l0 112c0,23 -19,41 -42,41l-657 0c-23,0 -42,-18 -42,-41l0 -112c0,-23 19,-41 42,-41zm0 5l657 0c21,0 37,16 37,36l0 112c0,20 -16,36 -37,36l-657 0c-21,0 -37,-16 -37,-36l0 -112c0,-20 16,-36 37,-36z"/>
   <path class="fil8" d="M473 233l657 0c18,0 32,14 32,31l0 112c0,17 -14,31 -32,31l-657 0c-18,0 -32,-14 -32,-31l0 -112c0,-17 14,-31 32,-31zm0 5l657 0c15,0 27,12 27,26l0 112c0,14 -12,26 -27,26l-657 0c-15,0 -27,-12 -27,-26l0 -112c0,-14 12,-26 27,-26z"/>
  </g>
  <g>
   <polygon class="fil9" points="345,815 1258,815 1258,1098 345,1098 "/>
   <path class="fil10" d="M475 907c0,2 1,4 2,5 1,1 3,2 5,2 3,0 4,-1 5,-1 1,-1 1,-3 1,-6l0 -4c0,-4 0,-6 -1,-6 -1,-1 -2,-2 -5,-2 -2,0 -4,1 -5,2 -1,1 -2,3 -2,6l0 4zm240 11l-1 -1 -1 -3 0 0 -7 -22 3 0 8 21 7 -21 3 0 -9 27c-1,3 -2,5 -3,6 -1,1 -2,1 -4,1 0,0 -1,0 -1,0 0,0 -1,0 -1,0l0 -3c0,0 0,0 0,0 1,0 1,0 1,0 1,0 2,0 3,-1 0,0 1,-1 1,-3l1 -1zm-244 -26l4 0 0 4c1,-1 1,-2 3,-3 1,-1 3,-1 5,-1 3,0 6,1 7,2 1,2 2,4 2,8l0 5c0,4 -1,7 -2,8 -1,1 -4,2 -7,2 -2,0 -4,0 -5,-1 -1,0 -2,-1 -3,-3l0 13 -4 0 0 -34zm44 15l0 -4c0,-4 0,-6 -1,-6 -1,-1 -2,-2 -5,-2l-2 0c-2,0 -4,1 -5,2 0,0 -1,2 -1,6l0 4c0,3 1,5 1,6 1,0 3,1 5,1l2 0c3,0 4,-1 5,-1 1,-1 1,-3 1,-6zm-8 10c-3,0 -6,-1 -7,-2 -2,-1 -2,-4 -2,-8l0 -5c0,-4 0,-6 2,-8 1,-1 4,-2 7,-2l2 0c4,0 6,1 8,2 1,2 2,4 2,8l0 5c0,4 -1,7 -2,8 -2,1 -4,2 -8,2l-2 0zm16 -25l3 0 6 21 6 -21 5 0 5 21 6 -21 3 0 -6 25 -5 0 -6 -21 -6 21 -5 0 -6 -25zm42 10l14 0 0 -1c0,-2 -1,-4 -1,-4 -1,-1 -3,-2 -5,-2l-2 0c-2,0 -4,1 -5,2 -1,0 -1,2 -1,4l0 1zm6 15c-4,0 -6,-1 -8,-2 -1,-1 -2,-4 -2,-8l0 -5c0,-4 1,-6 2,-8 2,-1 4,-2 8,-2l2 0c3,0 6,1 7,2 2,2 3,4 3,8l0 3 -18 0c0,1 0,1 0,1 0,1 0,1 0,1 0,3 0,5 1,6 1,0 3,1 5,1l2 0c2,0 3,0 4,-1 1,-1 2,-2 2,-3l4 0c-1,2 -2,4 -3,5 -2,2 -4,2 -7,2l-2 0zm18 0l0 -25 4 0 0 4c0,-2 1,-2 2,-3 1,-1 2,-1 4,-1 3,0 5,1 6,2 1,1 1,4 1,7l0 0 -3 0 0 -1c0,-2 -1,-3 -1,-4 -1,0 -2,-1 -4,-1 -2,0 -3,1 -4,2 -1,1 -1,3 -1,6l0 14 -4 0zm25 -15l14 0 0 -1c0,-2 -1,-4 -1,-4 -1,-1 -3,-2 -5,-2l-2 0c-2,0 -4,1 -5,2 -1,0 -1,2 -1,4l0 1zm6 15c-4,0 -6,-1 -8,-2 -1,-1 -2,-4 -2,-8l0 -5c0,-4 1,-6 2,-8 2,-1 4,-2 8,-2l2 0c3,0 6,1 7,2 2,2 2,4 2,8l0 3 -17 0c0,1 0,1 0,1 0,1 0,1 0,1 0,3 0,5 1,6 1,0 3,1 5,1l2 0c2,0 3,0 4,-1 1,-1 2,-2 2,-3l3 0c0,2 -1,4 -2,5 -2,2 -4,2 -7,2l-2 0zm34 -10l0 -4c0,-3 -1,-5 -2,-6 -1,-1 -3,-2 -5,-2 -3,0 -4,1 -5,2 -1,0 -1,2 -1,6l0 4c0,3 0,5 1,6 1,0 2,1 5,1 2,0 4,-1 5,-2 1,-1 2,-3 2,-5zm0 6c0,1 -1,2 -3,3 -1,1 -2,1 -5,1 -3,0 -5,-1 -7,-2 -1,-2 -2,-4 -2,-8l0 -5c0,-4 1,-6 2,-8 2,-1 4,-2 7,-2 2,0 4,0 5,1 1,1 2,2 3,3l0 -14 4 0 0 35 -4 0 0 -4zm31 -10l0 4c0,2 0,4 2,5 1,1 3,2 5,2 3,0 4,-1 5,-1 1,-1 1,-3 1,-6l0 -4c0,-4 0,-6 -1,-6 -1,-1 -2,-2 -5,-2 -2,0 -4,1 -5,2 -2,1 -2,3 -2,6zm-4 14l0 -35 4 0 0 14c1,-1 1,-2 3,-3 1,-1 2,-1 4,-1 4,0 6,1 8,2 1,2 2,4 2,8l0 5c0,4 -1,7 -2,8 -2,1 -4,2 -8,2 -2,0 -3,0 -5,-1 -1,-1 -2,-2 -2,-3l0 4 -4 0z"/>
   <g>
    <path class="fil4 str3" d="M1070 1003l0 -102 10 0 0 40c2,-4 5,-7 9,-9 4,-1 9,-2 15,-2 9,0 16,2 20,6 3,3 5,10 5,20l0 47 -10 0 0 -45c0,-8 -1,-13 -4,-15 -2,-2 -6,-3 -12,-3 -8,0 -14,1 -17,5 -4,3 -5,9 -5,16l0 42 -11 0zm-278 0l0 -72 10 0 0 10c2,-4 4,-7 8,-9 4,-1 9,-2 15,-2 10,0 17,2 20,6 4,3 6,10 6,20l0 47 -11 0 0 -45c0,-8 -1,-13 -3,-15 -2,-2 -6,-3 -13,-3 -7,0 -13,1 -16,5 -4,3 -6,9 -6,16l0 42 -10 0zm-145 0l0 -72 10 0 0 10c2,-4 5,-7 9,-9 3,-1 9,-2 15,-2 9,0 16,2 20,6 3,3 5,10 5,20l0 47 -10 0 0 -45c0,-8 -1,-13 -4,-15 -2,-2 -6,-3 -13,-3 -7,0 -13,1 -16,5 -4,3 -5,9 -5,16l0 42 -11 0zm-145 -22l11 0 0 2c0,4 1,8 4,9 3,2 8,3 16,3 10,0 15,-1 17,-3 3,-2 4,-5 4,-10 0,-4 -1,-7 -3,-9 -2,-2 -6,-3 -13,-3 -3,0 -6,0 -11,0 -9,-1 -15,-1 -17,-2 -3,-2 -5,-4 -6,-6 -1,-3 -1,-7 -1,-12 0,-8 2,-13 6,-16 4,-3 13,-4 26,-4 11,0 18,1 22,4 4,3 6,7 6,14l-11 0 0 -1c0,-3 -1,-5 -4,-6 -3,-1 -8,-2 -16,-2 -8,0 -13,1 -15,2 -3,2 -4,5 -4,9 0,3 0,5 1,6 0,1 1,2 2,3 2,1 7,2 14,2 2,0 4,0 5,0 6,0 10,1 14,1 3,0 6,1 7,2 3,1 6,3 7,6 1,3 2,7 2,12 0,5 -1,9 -2,12 -1,3 -4,5 -7,7 -2,1 -4,2 -8,2 -3,1 -8,1 -14,1 -13,0 -22,-2 -26,-5 -4,-3 -6,-8 -6,-16l0 -2zm84 50l-23 0 0 -10 23 0c4,0 7,-1 9,-5 1,-1 2,-3 3,-6l1 -3 -7 -19 -20 -57 11 0 21 62 21 -62 11 0 -27 78c-3,9 -6,14 -9,17 -3,3 -6,4 -10,5 -1,0 -3,0 -4,0zm154 -91c-7,0 -12,6 -12,13l0 28c0,7 5,13 12,13l18 0c7,0 13,-6 13,-13l0 -28c0,-7 -6,-13 -13,-13l-18 0zm0 -10l18 0c12,0 23,10 23,23l0 28c0,13 -11,23 -23,23l-18 0c-12,0 -22,-10 -22,-23l0 -28c0,-13 10,-23 22,-23zm205 10l17 0c7,0 13,6 13,13l0 6 -43 0 0 -6c0,-7 5,-13 13,-13zm30 39l0 2c0,7 -6,13 -13,13l-17 0c-8,0 -13,-6 -13,-13l0 -12 10 0 33 0 10 0 0 -16c0,-13 -11,-23 -23,-23l-17 0c-13,0 -23,10 -23,23l0 28c0,13 10,23 23,23l17 0c12,0 23,-10 23,-23l0 -2 -10 0zm44 -39l17 0c7,0 13,6 13,13l0 4 10 0 0 -4c0,-13 -10,-23 -23,-23l-17 0c-13,0 -23,10 -23,23l0 28c0,13 10,23 23,23l17 0c13,0 23,-10 23,-23l0 -4 -10 0 0 4c0,7 -6,13 -13,13l-17 0c-7,0 -13,-6 -13,-13l0 -28c0,-7 6,-13 13,-13zm-145 -25l0 15 -12 0 0 10 12 0 0 63 10 0 0 -63 29 0 0 -10 -29 0 0 -15 -10 0z"/>
    <path id="1" class="fil11" d="M1070 1003l0 -102 10 0 0 40c2,-4 5,-7 9,-9 4,-1 9,-2 15,-2 9,0 16,2 20,6 3,3 5,10 5,20l0 47 -10 0 0 -45c0,-8 -1,-13 -4,-15 -2,-2 -6,-3 -12,-3 -8,0 -14,1 -17,5 -4,3 -5,9 -5,16l0 42 -11 0zm-278 0l0 -72 10 0 0 10c2,-4 4,-7 8,-9 4,-1 9,-2 15,-2 10,0 17,2 20,6 4,3 6,10 6,20l0 47 -11 0 0 -45c0,-8 -1,-13 -3,-15 -2,-2 -6,-3 -13,-3 -7,0 -13,1 -16,5 -4,3 -6,9 -6,16l0 42 -10 0zm-145 0l0 -72 10 0 0 10c2,-4 5,-7 9,-9 3,-1 9,-2 15,-2 9,0 16,2 20,6 3,3 5,10 5,20l0 47 -10 0 0 -45c0,-8 -1,-13 -4,-15 -2,-2 -6,-3 -13,-3 -7,0 -13,1 -16,5 -4,3 -5,9 -5,16l0 42 -11 0zm-145 -22l11 0 0 2c0,4 1,8 4,9 3,2 8,3 16,3 10,0 15,-1 17,-3 3,-2 4,-5 4,-10 0,-4 -1,-7 -3,-9 -2,-2 -6,-3 -13,-3 -3,0 -6,0 -11,0 -9,-1 -15,-1 -17,-2 -3,-2 -5,-4 -6,-6 -1,-3 -1,-7 -1,-12 0,-8 2,-13 6,-16 4,-3 13,-4 26,-4 11,0 18,1 22,4 4,3 6,7 6,14l-11 0 0 -1c0,-3 -1,-5 -4,-6 -3,-1 -8,-2 -16,-2 -8,0 -13,1 -15,2 -3,2 -4,5 -4,9 0,3 0,5 1,6 0,1 1,2 2,3 2,1 7,2 14,2 2,0 4,0 5,0 6,0 10,1 14,1 3,0 6,1 7,2 3,1 6,3 7,6 1,3 2,7 2,12 0,5 -1,9 -2,12 -1,3 -4,5 -7,7 -2,1 -4,2 -8,2 -3,1 -8,1 -14,1 -13,0 -22,-2 -26,-5 -4,-3 -6,-8 -6,-16l0 -2zm84 50l-23 0 0 -10 23 0c4,0 7,-1 9,-5 1,-1 2,-3 3,-6l1 -3 -7 -19 -20 -57 11 0 21 62 21 -62 11 0 -27 78c-3,9 -6,14 -9,17 -3,3 -6,4 -10,5 -1,0 -3,0 -4,0zm154 -91c-7,0 -12,6 -12,13l0 28c0,7 5,13 12,13l18 0c7,0 13,-6 13,-13l0 -28c0,-7 -6,-13 -13,-13l-18 0zm0 -10l18 0c12,0 23,10 23,23l0 28c0,13 -11,23 -23,23l-18 0c-12,0 -22,-10 -22,-23l0 -28c0,-13 10,-23 22,-23zm205 10l17 0c7,0 13,6 13,13l0 6 -43 0 0 -6c0,-7 5,-13 13,-13zm30 39l0 2c0,7 -6,13 -13,13l-17 0c-8,0 -13,-6 -13,-13l0 -12 10 0 33 0 10 0 0 -16c0,-13 -11,-23 -23,-23l-17 0c-13,0 -23,10 -23,23l0 28c0,13 10,23 23,23l17 0c12,0 23,-10 23,-23l0 -2 -10 0zm44 -39l17 0c7,0 13,6 13,13l0 4 10 0 0 -4c0,-13 -10,-23 -23,-23l-17 0c-13,0 -23,10 -23,23l0 28c0,13 10,23 23,23l17 0c13,0 23,-10 23,-23l0 -4 -10 0 0 4c0,7 -6,13 -13,13l-17 0c-7,0 -13,-6 -13,-13l0 -28c0,-7 6,-13 13,-13zm-145 -25l0 15 -12 0 0 10 12 0 0 63 10 0 0 -63 29 0 0 -10 -29 0 0 -15 -10 0z"/>
   </g>
   <path class="fil8" d="M473 869l657 0c18,0 32,14 32,32l0 111c0,18 -14,32 -32,32l-657 0c-18,0 -32,-14 -32,-32l0 -111c0,-18 14,-32 32,-32zm0 5l657 0c15,0 27,12 27,27l0 111c0,15 -12,27 -27,27l-657 0c-15,0 -27,-12 -27,-27l0 -111c0,-15 12,-27 27,-27z"/>
  </g>
  <polygon class="fil5 str1" points="1288,492 2200,492 2200,775 1288,775 "/>
  <path class="fil2" d="M1998 670l0 -102 11 0 0 40c1,-4 4,-6 8,-8 4,-2 9,-3 15,-3 10,0 16,2 20,6 4,4 6,10 6,20l0 47 -11 0 0 -45c0,-7 -1,-12 -3,-15 -2,-2 -7,-3 -13,-3 -8,0 -13,2 -17,5 -3,3 -5,9 -5,16l0 42 -11 0zm-278 0l0 -72 10 0 0 10c2,-4 5,-6 9,-8 3,-2 9,-3 15,-3 9,0 16,2 20,6 3,4 5,10 5,20l0 47 -10 0 0 -45c0,-7 -1,-12 -4,-15 -2,-2 -6,-3 -13,-3 -7,0 -13,2 -16,5 -4,3 -5,9 -5,16l0 42 -11 0zm-145 0l0 -72 11 0 0 10c1,-4 4,-6 8,-8 4,-2 9,-3 15,-3 10,0 16,2 20,6 4,4 6,10 6,20l0 47 -11 0 0 -45c0,-7 -1,-12 -3,-15 -2,-2 -7,-3 -13,-3 -8,0 -13,2 -17,5 -3,3 -5,9 -5,16l0 42 -11 0zm-145 -21l11 0 0 1c0,5 2,8 4,10 3,1 8,2 17,2 9,0 15,-1 17,-2 2,-2 3,-5 3,-10 0,-5 -1,-8 -3,-10 -1,-1 -6,-2 -13,-3 -2,0 -6,0 -10,0 -10,0 -16,-1 -17,-2 -3,-1 -5,-4 -6,-6 -1,-3 -2,-6 -2,-11 0,-8 2,-14 6,-17 4,-2 13,-4 27,-4 11,0 18,2 22,4 3,3 5,8 5,14l-10 0 0 0c0,-3 -2,-6 -4,-7 -3,-1 -9,-2 -17,-2 -8,0 -13,1 -15,2 -2,2 -3,5 -3,10 0,2 0,4 0,6 1,1 1,2 2,2 3,1 7,2 15,2 1,0 3,0 4,0 6,1 11,1 14,1 4,1 6,1 7,2 4,1 6,3 7,6 2,3 2,7 2,12 0,5 0,9 -2,12 -1,3 -3,5 -7,7 -1,1 -4,2 -7,3 -4,0 -9,0 -15,0 -13,0 -21,-1 -25,-4 -5,-3 -7,-9 -7,-16l0 -2zm84 49l-22 0 0 -10 22 0c4,0 7,-1 9,-5 1,-1 2,-3 3,-5l1 -3 -7 -19 -20 -58 11 0 21 62 22 -62 10 0 -27 79c-3,8 -6,14 -9,17 -2,2 -6,4 -9,4 -2,0 -3,0 -5,0zm155 -91c-7,0 -13,6 -13,13l0 28c0,7 6,13 13,13l17 0c7,0 13,-6 13,-13l0 -28c0,-7 -6,-13 -13,-13l-17 0zm0 -10l17 0c13,0 23,10 23,23l0 28c0,13 -10,23 -23,23l-17 0c-13,0 -23,-10 -23,-23l0 -28c0,-13 10,-23 23,-23zm204 10l17 0c7,0 13,6 13,13l0 6 -43 0 0 -6c0,-7 6,-13 13,-13zm30 39l0 2c0,8 -6,13 -13,13l-17 0c-7,0 -13,-5 -13,-13l0 -12 10 0 33 0 10 0 0 -16c0,-13 -10,-23 -23,-23l-17 0c-13,0 -23,10 -23,23l0 28c0,13 10,23 23,23l17 0c13,0 23,-10 23,-23l0 -2 -10 0zm44 -39l17 0c8,0 13,6 13,13l0 4 10 0 0 -4c0,-13 -10,-23 -23,-23l-17 0c-12,0 -23,10 -23,23l0 28c0,13 11,23 23,23l17 0c13,0 23,-10 23,-23l0 -4 -10 0 0 4c0,8 -5,13 -13,13l-17 0c-7,0 -13,-5 -13,-13l0 -28c0,-7 6,-13 13,-13zm-144 -25l0 15 -12 0 0 11 12 0 0 62 9 0 0 -62 29 0 0 -11 -29 0 0 -15 -9 0z"/>
  <polygon class="fil0" points="1288,178 2200,178 2200,462 1288,462 "/>
  <path class="fil6" d="M1998 357l0 -102 11 0 0 40c1,-4 4,-7 8,-9 4,-1 9,-2 15,-2 10,0 16,2 20,6 4,3 6,10 6,20l0 47 -11 0 0 -45c0,-8 -1,-13 -3,-15 -2,-2 -7,-3 -13,-3 -8,0 -13,1 -17,5 -3,3 -5,9 -5,16l0 42 -11 0zm-278 0l0 -72 10 0 0 10c2,-4 5,-7 9,-9 3,-1 9,-2 15,-2 9,0 16,2 20,6 3,3 5,10 5,20l0 47 -10 0 0 -45c0,-8 -1,-13 -4,-15 -2,-2 -6,-3 -13,-3 -7,0 -13,1 -16,5 -4,3 -5,9 -5,16l0 42 -11 0zm-145 0l0 -72 11 0 0 10c1,-4 4,-7 8,-9 4,-1 9,-2 15,-2 10,0 16,2 20,6 4,3 6,10 6,20l0 47 -11 0 0 -45c0,-8 -1,-13 -3,-15 -2,-2 -7,-3 -13,-3 -8,0 -13,1 -17,5 -3,3 -5,9 -5,16l0 42 -11 0zm-145 -22l11 0 0 2c0,5 2,8 4,9 3,2 8,3 17,3 9,0 15,-1 17,-3 2,-1 3,-5 3,-10 0,-4 -1,-7 -3,-9 -1,-2 -6,-3 -13,-3 -2,0 -6,0 -10,0 -10,-1 -16,-1 -17,-2 -3,-2 -5,-4 -6,-6 -1,-3 -2,-7 -2,-12 0,-8 2,-13 6,-16 4,-3 13,-4 27,-4 11,0 18,1 22,4 3,3 5,7 5,14l-10 0 0 -1c0,-3 -2,-5 -4,-6 -3,-1 -9,-2 -17,-2 -8,0 -13,1 -15,2 -2,2 -3,5 -3,9 0,3 0,5 0,6 1,1 1,2 2,3 3,1 7,2 15,2 1,0 3,0 4,0 6,0 11,1 14,1 4,0 6,1 7,2 4,1 6,3 7,6 2,3 2,7 2,12 0,5 0,9 -2,12 -1,3 -3,5 -7,7 -1,1 -4,2 -7,2 -4,1 -9,1 -15,1 -13,0 -21,-2 -25,-5 -5,-3 -7,-8 -7,-16l0 -2zm84 50l-22 0 0 -10 22 0c4,0 7,-1 9,-5 1,-1 2,-3 3,-6l1 -3 -7 -19 -20 -57 11 0 21 62 22 -62 10 0 -27 78c-3,9 -6,14 -9,17 -2,3 -6,4 -9,5 -2,0 -3,0 -5,0zm155 -91c-7,0 -13,6 -13,13l0 28c0,7 6,13 13,13l17 0c7,0 13,-6 13,-13l0 -28c0,-7 -6,-13 -13,-13l-17 0zm0 -10l17 0c13,0 23,10 23,23l0 28c0,13 -10,23 -23,23l-17 0c-13,0 -23,-10 -23,-23l0 -28c0,-13 10,-23 23,-23zm204 10l17 0c7,0 13,6 13,13l0 6 -43 0 0 -6c0,-7 6,-13 13,-13zm30 39l0 2c0,7 -6,13 -13,13l-17 0c-7,0 -13,-6 -13,-13l0 -12 10 0 33 0 10 0 0 -16c0,-13 -10,-23 -23,-23l-17 0c-13,0 -23,10 -23,23l0 28c0,13 10,23 23,23l17 0c13,0 23,-10 23,-23l0 -2 -10 0zm44 -39l17 0c8,0 13,6 13,13l0 4 10 0 0 -4c0,-13 -10,-23 -23,-23l-17 0c-12,0 -23,10 -23,23l0 28c0,13 11,23 23,23l17 0c13,0 23,-10 23,-23l0 -4 -10 0 0 4c0,7 -5,13 -13,13l-17 0c-7,0 -13,-6 -13,-13l0 -28c0,-7 6,-13 13,-13zm-144 -25l0 15 -12 0 0 10 12 0 0 63 9 0 0 -63 29 0 0 -10 -29 0 0 -15 -9 0z"/>
  <polygon class="fil5 str1" points="2230,492 3143,492 3143,775 2230,775 "/>
  <path class="fil3" d="M2941 670l0 -102 10 0 0 40c2,-4 5,-6 9,-8 3,-2 8,-3 15,-3 9,0 16,2 20,6 3,4 5,10 5,20l0 47 -10 0 0 -45c0,-7 -2,-12 -4,-15 -2,-2 -6,-3 -13,-3 -7,0 -13,2 -16,5 -4,3 -5,9 -5,16l0 42 -11 0zm-278 0l0 -72 10 0 0 10c2,-4 4,-6 8,-8 4,-2 9,-3 15,-3 10,0 16,2 20,6 4,4 6,10 6,20l0 47 -11 0 0 -45c0,-7 -1,-12 -3,-15 -2,-2 -7,-3 -13,-3 -8,0 -13,2 -17,5 -3,3 -5,9 -5,16l0 42 -10 0zm-145 0l0 -72 10 0 0 10c2,-4 5,-6 9,-8 3,-2 8,-3 15,-3 9,0 16,2 20,6 3,4 5,10 5,20l0 47 -10 0 0 -45c0,-7 -2,-12 -4,-15 -2,-2 -6,-3 -13,-3 -7,0 -13,2 -16,5 -4,3 -5,9 -5,16l0 42 -11 0zm-145 -21l11 0 0 1c0,5 1,8 4,10 2,1 8,2 16,2 9,0 15,-1 17,-2 2,-2 4,-5 4,-10 0,-5 -1,-8 -3,-10 -2,-1 -6,-2 -13,-3 -3,0 -6,0 -11,0 -9,0 -15,-1 -17,-2 -3,-1 -5,-4 -6,-6 -1,-3 -2,-6 -2,-11 0,-8 2,-14 7,-17 4,-2 12,-4 26,-4 11,0 18,2 22,4 4,3 6,8 6,14l-11 0 0 0c0,-3 -1,-6 -4,-7 -3,-1 -8,-2 -16,-2 -8,0 -13,1 -16,2 -2,2 -3,5 -3,10 0,2 0,4 1,6 0,1 1,2 2,2 2,1 7,2 14,2 2,0 3,0 4,0 6,1 11,1 15,1 3,1 5,1 7,2 3,1 5,3 7,6 1,3 2,7 2,12 0,5 -1,9 -2,12 -2,3 -4,5 -7,7 -2,1 -4,2 -8,3 -3,0 -8,0 -15,0 -12,0 -21,-1 -25,-4 -4,-3 -6,-9 -6,-16l0 -2zm83 49l-22 0 0 -10 22 0c5,0 7,-1 10,-5 1,-1 2,-3 2,-5l2 -3 -7 -19 -20 -58 10 0 22 62 21 -62 11 0 -27 79c-3,8 -6,14 -10,17 -2,2 -5,4 -9,4 -2,0 -3,0 -5,0zm155 -91c-7,0 -13,6 -13,13l0 28c0,7 6,13 13,13l17 0c8,0 13,-6 13,-13l0 -28c0,-7 -5,-13 -13,-13l-17 0zm0 -10l17 0c13,0 23,10 23,23l0 28c0,13 -10,23 -23,23l-17 0c-12,0 -23,-10 -23,-23l0 -28c0,-13 11,-23 23,-23zm205 10l17 0c7,0 13,6 13,13l0 6 -44 0 0 -6c0,-7 6,-13 14,-13zm30 39l0 2c0,8 -6,13 -13,13l-17 0c-8,0 -14,-5 -14,-13l0 -12 11 0 33 0 10 0 0 -16c0,-13 -11,-23 -23,-23l-17 0c-13,0 -23,10 -23,23l0 28c0,13 10,23 23,23l17 0c12,0 23,-10 23,-23l0 -2 -10 0zm44 -39l17 0c7,0 13,6 13,13l0 4 10 0 0 -4c0,-13 -11,-23 -23,-23l-17 0c-13,0 -23,10 -23,23l0 28c0,13 10,23 23,23l17 0c12,0 23,-10 23,-23l0 -4 -10 0 0 4c0,8 -6,13 -13,13l-17 0c-8,0 -13,-5 -13,-13l0 -28c0,-7 5,-13 13,-13zm-145 -25l0 15 -12 0 0 11 12 0 0 62 10 0 0 -62 29 0 0 -11 -29 0 0 -15 -10 0z"/>
  <polygon class="fil0" points="2230,178 3143,178 3143,462 2230,462 "/>
  <path class="fil10" d="M2941 357l0 -102 10 0 0 40c2,-4 5,-7 9,-9 3,-1 8,-2 15,-2 9,0 16,2 20,6 3,3 5,10 5,20l0 47 -10 0 0 -45c0,-8 -2,-13 -4,-15 -2,-2 -6,-3 -13,-3 -7,0 -13,1 -16,5 -4,3 -5,9 -5,16l0 42 -11 0zm-278 0l0 -72 10 0 0 10c2,-4 4,-7 8,-9 4,-1 9,-2 15,-2 10,0 16,2 20,6 4,3 6,10 6,20l0 47 -11 0 0 -45c0,-8 -1,-13 -3,-15 -2,-2 -7,-3 -13,-3 -8,0 -13,1 -17,5 -3,3 -5,9 -5,16l0 42 -10 0zm-145 0l0 -72 10 0 0 10c2,-4 5,-7 9,-9 3,-1 8,-2 15,-2 9,0 16,2 20,6 3,3 5,10 5,20l0 47 -10 0 0 -45c0,-8 -2,-13 -4,-15 -2,-2 -6,-3 -13,-3 -7,0 -13,1 -16,5 -4,3 -5,9 -5,16l0 42 -11 0zm-145 -22l11 0 0 2c0,5 1,8 4,9 2,2 8,3 16,3 9,0 15,-1 17,-3 2,-1 4,-5 4,-10 0,-4 -1,-7 -3,-9 -2,-2 -6,-3 -13,-3 -3,0 -6,0 -11,0 -9,-1 -15,-1 -17,-2 -3,-2 -5,-4 -6,-6 -1,-3 -2,-7 -2,-12 0,-8 2,-13 7,-16 4,-3 12,-4 26,-4 11,0 18,1 22,4 4,3 6,7 6,14l-11 0 0 -1c0,-3 -1,-5 -4,-6 -3,-1 -8,-2 -16,-2 -8,0 -13,1 -16,2 -2,2 -3,5 -3,9 0,3 0,5 1,6 0,1 1,2 2,3 2,1 7,2 14,2 2,0 3,0 4,0 6,0 11,1 15,1 3,0 5,1 7,2 3,1 5,3 7,6 1,3 2,7 2,12 0,5 -1,9 -2,12 -2,3 -4,5 -7,7 -2,1 -4,2 -8,2 -3,1 -8,1 -15,1 -12,0 -21,-2 -25,-5 -4,-3 -6,-8 -6,-16l0 -2zm83 50l-22 0 0 -10 22 0c5,0 7,-1 10,-5 1,-1 2,-3 2,-6l2 -3 -7 -19 -20 -57 10 0 22 62 21 -62 11 0 -27 78c-3,9 -6,14 -10,17 -2,3 -5,4 -9,5 -2,0 -3,0 -5,0zm155 -91c-7,0 -13,6 -13,13l0 28c0,7 6,13 13,13l17 0c8,0 13,-6 13,-13l0 -28c0,-7 -5,-13 -13,-13l-17 0zm0 -10l17 0c13,0 23,10 23,23l0 28c0,13 -10,23 -23,23l-17 0c-12,0 -23,-10 -23,-23l0 -28c0,-13 11,-23 23,-23zm205 10l17 0c7,0 13,6 13,13l0 6 -44 0 0 -6c0,-7 6,-13 14,-13zm30 39l0 2c0,7 -6,13 -13,13l-17 0c-8,0 -14,-6 -14,-13l0 -12 11 0 33 0 10 0 0 -16c0,-13 -11,-23 -23,-23l-17 0c-13,0 -23,10 -23,23l0 28c0,13 10,23 23,23l17 0c12,0 23,-10 23,-23l0 -2 -10 0zm44 -39l17 0c7,0 13,6 13,13l0 4 10 0 0 -4c0,-13 -11,-23 -23,-23l-17 0c-13,0 -23,10 -23,23l0 28c0,13 10,23 23,23l17 0c12,0 23,-10 23,-23l0 -4 -10 0 0 4c0,7 -6,13 -13,13l-17 0c-8,0 -13,-6 -13,-13l0 -28c0,-7 5,-13 13,-13zm-145 -25l0 15 -12 0 0 10 12 0 0 63 10 0 0 -63 29 0 0 -10 -29 0 0 -15 -10 0z"/>
  <polygon class="fil9" points="1288,815 2200,815 2200,1098 1288,1098 "/>
  <g>
   <path class="fil4 str4" d="M2013 1003l0 -102 10 0 0 40c2,-4 4,-7 8,-9 4,-1 9,-2 15,-2 10,0 16,2 20,6 4,3 6,10 6,20l0 47 -11 0 0 -45c0,-8 -1,-13 -3,-15 -2,-2 -7,-3 -13,-3 -8,0 -13,1 -17,5 -3,3 -5,9 -5,16l0 42 -10 0zm-279 0l0 -72 10 0 0 10c2,-4 5,-7 9,-9 4,-1 9,-2 15,-2 9,0 16,2 20,6 4,3 6,10 6,20l0 47 -11 0 0 -45c0,-8 -1,-13 -3,-15 -3,-2 -7,-3 -13,-3 -8,0 -13,1 -17,5 -3,3 -5,9 -5,16l0 42 -11 0zm-144 0l0 -72 10 0 0 10c2,-4 4,-7 8,-9 4,-1 9,-2 15,-2 10,0 16,2 20,6 4,3 6,10 6,20l0 47 -11 0 0 -45c0,-8 -1,-13 -3,-15 -2,-2 -7,-3 -13,-3 -8,0 -13,1 -17,5 -3,3 -5,9 -5,16l0 42 -10 0zm-146 -22l11 0 0 2c0,4 2,8 4,9 3,2 9,3 17,3 9,0 15,-1 17,-3 2,-2 3,-5 3,-10 0,-4 -1,-7 -2,-9 -2,-2 -7,-3 -14,-3 -2,0 -6,0 -10,0 -10,-1 -16,-1 -17,-2 -3,-2 -5,-4 -6,-6 -1,-3 -2,-7 -2,-12 0,-8 2,-13 6,-16 4,-3 13,-4 27,-4 11,0 18,1 22,4 4,3 5,7 5,14l-10 0 0 -1c0,-3 -2,-5 -4,-6 -3,-1 -9,-2 -17,-2 -8,0 -13,1 -15,2 -2,2 -3,5 -3,9 0,3 0,5 0,6 1,1 1,2 3,3 2,1 6,2 14,2 2,0 3,0 4,0 6,0 11,1 14,1 4,0 6,1 8,2 3,1 5,3 6,6 2,3 2,7 2,12 0,5 0,9 -2,12 -1,3 -3,5 -7,7 -1,1 -4,2 -7,2 -4,1 -9,1 -15,1 -13,0 -21,-2 -25,-5 -4,-3 -7,-8 -7,-16l0 -2zm84 50l-22 0 0 -10 22 0c5,0 7,-1 9,-5 1,-1 2,-3 3,-6l1 -3 -7 -19 -20 -57 11 0 22 62 21 -62 10 0 -27 78c-3,9 -6,14 -9,17 -2,3 -5,4 -9,5 -2,0 -3,0 -5,0zm155 -91c-7,0 -13,6 -13,13l0 28c0,7 6,13 13,13l17 0c7,0 13,-6 13,-13l0 -28c0,-7 -6,-13 -13,-13l-17 0zm0 -10l17 0c13,0 23,10 23,23l0 28c0,13 -10,23 -23,23l-17 0c-13,0 -23,-10 -23,-23l0 -28c0,-13 10,-23 23,-23zm204 10l17 0c8,0 13,6 13,13l0 6 -43 0 0 -6c0,-7 6,-13 13,-13zm30 39l0 2c0,7 -5,13 -13,13l-17 0c-7,0 -13,-6 -13,-13l0 -12 10 0 33 0 10 0 0 -16c0,-13 -10,-23 -23,-23l-17 0c-12,0 -23,10 -23,23l0 28c0,13 11,23 23,23l17 0c13,0 23,-10 23,-23l0 -2 -10 0zm44 -39l18 0c7,0 13,6 13,13l0 4 9 0 0 -4c0,-13 -10,-23 -22,-23l-18 0c-12,0 -23,10 -23,23l0 28c0,13 11,23 23,23l18 0c12,0 22,-10 22,-23l0 -4 -9 0 0 4c0,7 -6,13 -13,13l-18 0c-7,0 -13,-6 -13,-13l0 -28c0,-7 6,-13 13,-13zm-144 -25l0 15 -12 0 0 10 12 0 0 63 10 0 0 -63 28 0 0 -10 -28 0 0 -15 -10 0z"/>
   <path id="1" class="fil11" d="M2013 1003l0 -102 10 0 0 40c2,-4 4,-7 8,-9 4,-1 9,-2 15,-2 10,0 16,2 20,6 4,3 6,10 6,20l0 47 -11 0 0 -45c0,-8 -1,-13 -3,-15 -2,-2 -7,-3 -13,-3 -8,0 -13,1 -17,5 -3,3 -5,9 -5,16l0 42 -10 0zm-279 0l0 -72 10 0 0 10c2,-4 5,-7 9,-9 4,-1 9,-2 15,-2 9,0 16,2 20,6 4,3 6,10 6,20l0 47 -11 0 0 -45c0,-8 -1,-13 -3,-15 -3,-2 -7,-3 -13,-3 -8,0 -13,1 -17,5 -3,3 -5,9 -5,16l0 42 -11 0zm-144 0l0 -72 10 0 0 10c2,-4 4,-7 8,-9 4,-1 9,-2 15,-2 10,0 16,2 20,6 4,3 6,10 6,20l0 47 -11 0 0 -45c0,-8 -1,-13 -3,-15 -2,-2 -7,-3 -13,-3 -8,0 -13,1 -17,5 -3,3 -5,9 -5,16l0 42 -10 0zm-146 -22l11 0 0 2c0,4 2,8 4,9 3,2 9,3 17,3 9,0 15,-1 17,-3 2,-2 3,-5 3,-10 0,-4 -1,-7 -2,-9 -2,-2 -7,-3 -14,-3 -2,0 -6,0 -10,0 -10,-1 -16,-1 -17,-2 -3,-2 -5,-4 -6,-6 -1,-3 -2,-7 -2,-12 0,-8 2,-13 6,-16 4,-3 13,-4 27,-4 11,0 18,1 22,4 4,3 5,7 5,14l-10 0 0 -1c0,-3 -2,-5 -4,-6 -3,-1 -9,-2 -17,-2 -8,0 -13,1 -15,2 -2,2 -3,5 -3,9 0,3 0,5 0,6 1,1 1,2 3,3 2,1 6,2 14,2 2,0 3,0 4,0 6,0 11,1 14,1 4,0 6,1 8,2 3,1 5,3 6,6 2,3 2,7 2,12 0,5 0,9 -2,12 -1,3 -3,5 -7,7 -1,1 -4,2 -7,2 -4,1 -9,1 -15,1 -13,0 -21,-2 -25,-5 -4,-3 -7,-8 -7,-16l0 -2zm84 50l-22 0 0 -10 22 0c5,0 7,-1 9,-5 1,-1 2,-3 3,-6l1 -3 -7 -19 -20 -57 11 0 22 62 21 -62 10 0 -27 78c-3,9 -6,14 -9,17 -2,3 -5,4 -9,5 -2,0 -3,0 -5,0zm155 -91c-7,0 -13,6 -13,13l0 28c0,7 6,13 13,13l17 0c7,0 13,-6 13,-13l0 -28c0,-7 -6,-13 -13,-13l-17 0zm0 -10l17 0c13,0 23,10 23,23l0 28c0,13 -10,23 -23,23l-17 0c-13,0 -23,-10 -23,-23l0 -28c0,-13 10,-23 23,-23zm204 10l17 0c8,0 13,6 13,13l0 6 -43 0 0 -6c0,-7 6,-13 13,-13zm30 39l0 2c0,7 -5,13 -13,13l-17 0c-7,0 -13,-6 -13,-13l0 -12 10 0 33 0 10 0 0 -16c0,-13 -10,-23 -23,-23l-17 0c-12,0 -23,10 -23,23l0 28c0,13 11,23 23,23l17 0c13,0 23,-10 23,-23l0 -2 -10 0zm44 -39l18 0c7,0 13,6 13,13l0 4 9 0 0 -4c0,-13 -10,-23 -22,-23l-18 0c-12,0 -23,10 -23,23l0 28c0,13 11,23 23,23l18 0c12,0 22,-10 22,-23l0 -4 -9 0 0 4c0,7 -6,13 -13,13l-18 0c-7,0 -13,-6 -13,-13l0 -28c0,-7 6,-13 13,-13zm-144 -25l0 15 -12 0 0 10 12 0 0 63 10 0 0 -63 28 0 0 -10 -28 0 0 -15 -10 0z"/>
  </g>
  <polygon class="fil12" points="2230,815 3143,815 3143,1098 2230,1098 "/>
  <g>
   <path class="fil4 str5" d="M2955 1003l0 -102 10 0 0 40c2,-4 5,-7 9,-9 4,-1 9,-2 15,-2 9,0 16,2 20,6 3,3 5,10 5,20l0 47 -10 0 0 -45c0,-8 -1,-13 -4,-15 -2,-2 -6,-3 -12,-3 -8,0 -14,1 -17,5 -4,3 -5,9 -5,16l0 42 -11 0zm-278 0l0 -72 10 0 0 10c2,-4 4,-7 8,-9 4,-1 9,-2 15,-2 10,0 17,2 20,6 4,3 6,10 6,20l0 47 -11 0 0 -45c0,-8 -1,-13 -3,-15 -2,-2 -6,-3 -13,-3 -7,0 -13,1 -16,5 -4,3 -6,9 -6,16l0 42 -10 0zm-145 0l0 -72 10 0 0 10c2,-4 5,-7 9,-9 3,-1 9,-2 15,-2 9,0 16,2 20,6 3,3 5,10 5,20l0 47 -10 0 0 -45c0,-8 -1,-13 -4,-15 -2,-2 -6,-3 -13,-3 -7,0 -13,1 -16,5 -4,3 -5,9 -5,16l0 42 -11 0zm-145 -22l11 0 0 2c0,4 1,8 4,9 3,2 8,3 16,3 10,0 15,-1 17,-3 3,-2 4,-5 4,-10 0,-4 -1,-7 -3,-9 -2,-2 -6,-3 -13,-3 -3,0 -6,0 -11,0 -9,-1 -15,-1 -17,-2 -3,-2 -5,-4 -6,-6 -1,-3 -1,-7 -1,-12 0,-8 2,-13 6,-16 4,-3 13,-4 26,-4 11,0 18,1 22,4 4,3 6,7 6,14l-11 0 0 -1c0,-3 -1,-5 -4,-6 -3,-1 -8,-2 -16,-2 -8,0 -13,1 -15,2 -3,2 -4,5 -4,9 0,3 0,5 1,6 0,1 1,2 2,3 2,1 7,2 14,2 2,0 4,0 5,0 6,0 10,1 14,1 3,0 6,1 7,2 3,1 6,3 7,6 1,3 2,7 2,12 0,5 -1,9 -2,12 -1,3 -4,5 -7,7 -2,1 -4,2 -8,2 -3,1 -8,1 -14,1 -13,0 -22,-2 -26,-5 -4,-3 -6,-8 -6,-16l0 -2zm84 50l-23 0 0 -10 23 0c4,0 7,-1 9,-5 1,-1 2,-3 3,-6l1 -3 -7 -19 -20 -57 11 0 21 62 21 -62 11 0 -27 78c-3,9 -6,14 -9,17 -3,3 -6,4 -10,5 -1,0 -3,0 -4,0zm154 -91c-7,0 -12,6 -12,13l0 28c0,7 5,13 12,13l18 0c7,0 13,-6 13,-13l0 -28c0,-7 -6,-13 -13,-13l-18 0zm0 -10l18 0c12,0 23,10 23,23l0 28c0,13 -11,23 -23,23l-18 0c-12,0 -22,-10 -22,-23l0 -28c0,-13 10,-23 22,-23zm205 10l17 0c7,0 13,6 13,13l0 6 -43 0 0 -6c0,-7 5,-13 13,-13zm30 39l0 2c0,7 -6,13 -13,13l-17 0c-8,0 -13,-6 -13,-13l0 -12 10 0 33 0 10 0 0 -16c0,-13 -11,-23 -23,-23l-17 0c-13,0 -23,10 -23,23l0 28c0,13 10,23 23,23l17 0c12,0 23,-10 23,-23l0 -2 -10 0zm44 -39l17 0c7,0 13,6 13,13l0 4 10 0 0 -4c0,-13 -10,-23 -23,-23l-17 0c-13,0 -23,10 -23,23l0 28c0,13 10,23 23,23l17 0c13,0 23,-10 23,-23l0 -4 -10 0 0 4c0,7 -6,13 -13,13l-17 0c-7,0 -13,-6 -13,-13l0 -28c0,-7 6,-13 13,-13zm-145 -25l0 15 -12 0 0 10 12 0 0 63 10 0 0 -63 29 0 0 -10 -29 0 0 -15 -10 0z"/>
   <path id="1" class="fil13" d="M2955 1003l0 -102 10 0 0 40c2,-4 5,-7 9,-9 4,-1 9,-2 15,-2 9,0 16,2 20,6 3,3 5,10 5,20l0 47 -10 0 0 -45c0,-8 -1,-13 -4,-15 -2,-2 -6,-3 -12,-3 -8,0 -14,1 -17,5 -4,3 -5,9 -5,16l0 42 -11 0zm-278 0l0 -72 10 0 0 10c2,-4 4,-7 8,-9 4,-1 9,-2 15,-2 10,0 17,2 20,6 4,3 6,10 6,20l0 47 -11 0 0 -45c0,-8 -1,-13 -3,-15 -2,-2 -6,-3 -13,-3 -7,0 -13,1 -16,5 -4,3 -6,9 -6,16l0 42 -10 0zm-145 0l0 -72 10 0 0 10c2,-4 5,-7 9,-9 3,-1 9,-2 15,-2 9,0 16,2 20,6 3,3 5,10 5,20l0 47 -10 0 0 -45c0,-8 -1,-13 -4,-15 -2,-2 -6,-3 -13,-3 -7,0 -13,1 -16,5 -4,3 -5,9 -5,16l0 42 -11 0zm-145 -22l11 0 0 2c0,4 1,8 4,9 3,2 8,3 16,3 10,0 15,-1 17,-3 3,-2 4,-5 4,-10 0,-4 -1,-7 -3,-9 -2,-2 -6,-3 -13,-3 -3,0 -6,0 -11,0 -9,-1 -15,-1 -17,-2 -3,-2 -5,-4 -6,-6 -1,-3 -1,-7 -1,-12 0,-8 2,-13 6,-16 4,-3 13,-4 26,-4 11,0 18,1 22,4 4,3 6,7 6,14l-11 0 0 -1c0,-3 -1,-5 -4,-6 -3,-1 -8,-2 -16,-2 -8,0 -13,1 -15,2 -3,2 -4,5 -4,9 0,3 0,5 1,6 0,1 1,2 2,3 2,1 7,2 14,2 2,0 4,0 5,0 6,0 10,1 14,1 3,0 6,1 7,2 3,1 6,3 7,6 1,3 2,7 2,12 0,5 -1,9 -2,12 -1,3 -4,5 -7,7 -2,1 -4,2 -8,2 -3,1 -8,1 -14,1 -13,0 -22,-2 -26,-5 -4,-3 -6,-8 -6,-16l0 -2zm84 50l-23 0 0 -10 23 0c4,0 7,-1 9,-5 1,-1 2,-3 3,-6l1 -3 -7 -19 -20 -57 11 0 21 62 21 -62 11 0 -27 78c-3,9 -6,14 -9,17 -3,3 -6,4 -10,5 -1,0 -3,0 -4,0zm154 -91c-7,0 -12,6 -12,13l0 28c0,7 5,13 12,13l18 0c7,0 13,-6 13,-13l0 -28c0,-7 -6,-13 -13,-13l-18 0zm0 -10l18 0c12,0 23,10 23,23l0 28c0,13 -11,23 -23,23l-18 0c-12,0 -22,-10 -22,-23l0 -28c0,-13 10,-23 22,-23zm205 10l17 0c7,0 13,6 13,13l0 6 -43 0 0 -6c0,-7 5,-13 13,-13zm30 39l0 2c0,7 -6,13 -13,13l-17 0c-8,0 -13,-6 -13,-13l0 -12 10 0 33 0 10 0 0 -16c0,-13 -11,-23 -23,-23l-17 0c-13,0 -23,10 -23,23l0 28c0,13 10,23 23,23l17 0c12,0 23,-10 23,-23l0 -2 -10 0zm44 -39l17 0c7,0 13,6 13,13l0 4 10 0 0 -4c0,-13 -10,-23 -23,-23l-17 0c-13,0 -23,10 -23,23l0 28c0,13 10,23 23,23l17 0c13,0 23,-10 23,-23l0 -4 -10 0 0 4c0,7 -6,13 -13,13l-17 0c-7,0 -13,-6 -13,-13l0 -28c0,-7 6,-13 13,-13zm-145 -25l0 15 -12 0 0 10 12 0 0 63 10 0 0 -63 29 0 0 -10 -29 0 0 -15 -10 0z"/>
  </g>
  <path class="fil14" d="M2420 1326c-22,25 -20,65 5,87 25,23 65,21 88,-4l67 -75c15,-17 19,-40 12,-61l28 -31c21,37 17,85 -12,118l-67 74c-37,41 -101,44 -141,8l0 0c-41,-37 -45,-101 -8,-142l67 -74c29,-32 74,-41 112,-26l-28 32c-20,-3 -41,3 -56,19l-67 75zm132 -28c-15,17 -19,41 -12,61l-28 31c-21,-36 -18,-84 12,-117l67 -75c37,-40 100,-44 141,-7l0 0c41,37 44,100 7,141l-67 75c-28,32 -74,41 -112,25l28 -31c21,3 42,-4 56,-20l67 -74c23,-25 21,-65 -4,-88 -26,-22 -65,-20 -88,5l-67 74z"/>
  <path class="fil7" d="M2905 1326c-23,25 -21,65 4,87 26,23 65,21 88,-4l67 -75c15,-17 19,-40 12,-61l28 -31c21,37 18,85 -12,118l-67 74c-37,41 -100,44 -141,8l0 0c-41,-37 -44,-101 -7,-142l67 -74c28,-32 74,-41 112,-26l-29 32c-20,-3 -41,3 -55,19l-67 75zm131 -28c-15,17 -19,41 -12,61l-28 31c-21,-36 -18,-84 12,-117l67 -75c37,-40 100,-44 141,-7l0 0c41,37 45,100 8,141l-67 75c-29,32 -74,41 -112,25l28 -31c20,3 41,-4 56,-20l67 -74c22,-25 20,-65 -5,-88 -25,-22 -65,-20 -88,5l-67 74z"/>
  <g>
   <path class="fil2" d="M496 1207c-3,2 -3,6 -2,9l-5 5c-3,-6 -3,-13 2,-19l11 -12c6,-6 16,-7 23,-1l0 0c6,6 7,16 1,23l-11 12c-4,5 -12,7 -18,4l5 -5c3,1 6,-1 9,-3l10 -12c4,-4 4,-11 0,-14 -4,-4 -11,-4 -14,1l-11 12zm-21 4c-4,4 -4,10 0,14 4,4 11,3 14,-1l11 -12c3,-2 3,-6 2,-10l5 -4c3,5 3,13 -2,18l-11 12c-6,7 -16,8 -23,2l0 0c-6,-6 -7,-17 -1,-23l11 -12c4,-5 12,-7 18,-4l-5 5c-3,-1 -6,0 -9,3l-10 12z"/>
   <path class="fil3" d="M423 1305l49 0 0 16 -70 0 0 -108 21 0 0 92zm84 16l-21 0 0 -80 21 0 0 80zm38 -80l1 12c2,-4 6,-8 10,-10 3,-2 8,-3 13,-3 8,0 14,2 19,7 4,6 6,14 6,25l0 49 -21 0 0 -49c0,-6 -1,-10 -3,-12 -2,-2 -5,-4 -9,-4 -4,0 -6,1 -9,2 -2,1 -4,3 -6,5l0 58 -21 0 0 -80 20 0zm93 47l-6 0 0 33 -21 0 0 -115 21 0 0 65 5 0 19 -30 25 0 -26 37 30 43 -25 0 -22 -33zm87 35c-12,0 -21,-4 -28,-11 -7,-8 -10,-17 -10,-29l0 -2c0,-12 3,-22 10,-30 6,-8 15,-11 27,-11 10,0 19,3 24,10 6,6 9,15 9,26l0 11 -48 0 0 1c0,5 2,10 5,13 3,4 7,5 13,5 5,0 9,0 13,-1 3,-1 7,-3 10,-5l6 14c-3,2 -8,4 -13,6 -6,2 -12,3 -18,3zm-1 -67c-5,0 -8,2 -10,5 -3,3 -4,7 -5,12l0 0 27 0 0 -2c0,-4 -1,-8 -3,-11 -2,-2 -5,-4 -9,-4zm88 4l-8 -1c-3,0 -6,1 -8,2 -2,2 -4,4 -5,6l0 54 -21 0 0 -80 20 0 1 12c1,-4 4,-8 7,-10 3,-2 6,-3 10,-3 1,0 2,0 3,0 1,0 2,0 3,1l-2 19z"/>
   <g>
    <path class="fil4 str6" d="M882 1297l8 24 12 0 -31 -95 -10 0 -31 95 12 0 8 -24 32 0zm-29 -11l13 -42 13 42 -26 0zm53 -60l0 10 23 0 0 75 -23 0 0 10 58 0 0 -10 -23 0 0 -75 23 0 0 -10 -58 0z"/>
    <path id="1" class="fil6" d="M882 1297l8 24 12 0 -31 -95 -10 0 -31 95 12 0 8 -24 32 0zm-29 -11l13 -42 13 42 -26 0zm53 -60l0 10 23 0 0 75 -23 0 0 10 58 0 0 -10 -23 0 0 -75 23 0 0 -10 -58 0z"/>
   </g>
   <path class="fil2" d="M805 1313c0,3 1,5 2,7 2,2 4,3 8,3 3,0 5,-1 7,-3 1,-2 2,-4 2,-7 0,-2 -1,-4 -2,-6 -2,-2 -4,-3 -7,-3 -4,0 -6,1 -8,3 -1,2 -2,4 -2,6z"/>
  </g>
  <g>
   <path class="fil3" d="M496 1430c-3,3 -3,7 -2,10l-5 5c-3,-6 -3,-13 2,-19l11 -12c6,-6 16,-7 23,-1l0 0c6,6 7,16 1,23l-11 12c-4,5 -12,7 -18,4l5 -5c3,1 6,-1 9,-3l10 -12c4,-4 4,-11 0,-14 -4,-4 -11,-4 -14,1l-11 11zm-21 5c-4,4 -4,10 0,14 4,4 11,3 14,-1l11 -12c3,-2 3,-6 2,-10l5 -4c3,5 3,13 -2,18l-11 12c-6,7 -16,8 -23,2l0 0c-6,-6 -7,-17 -1,-23l11 -12c4,-5 12,-7 18,-4l-5 5c-3,-1 -6,0 -9,3l-10 12z"/>
   <path class="fil2" d="M423 1529l49 0 0 16 -70 0 0 -108 21 0 0 92zm84 16l-21 0 0 -80 21 0 0 80zm38 -80l1 12c2,-5 6,-8 10,-10 3,-2 8,-3 13,-3 8,0 14,2 19,7 4,6 6,14 6,25l0 49 -21 0 0 -49c0,-6 -1,-10 -3,-12 -2,-2 -5,-4 -9,-4 -4,0 -6,1 -9,2 -2,1 -4,3 -6,5l0 58 -21 0 0 -80 20 0zm93 47l-6 0 0 33 -21 0 0 -115 21 0 0 65 5 0 19 -30 25 0 -26 37 30 43 -25 0 -22 -33zm87 35c-12,0 -21,-4 -28,-11 -7,-8 -10,-17 -10,-29l0 -3c0,-12 3,-21 10,-29 6,-8 15,-11 27,-11 10,0 19,3 24,10 6,6 9,15 9,26l0 11 -48 0 0 1c0,5 2,10 5,13 3,3 7,5 13,5 5,0 9,0 13,-1 3,-1 7,-3 10,-5l6 14c-3,2 -8,4 -13,6 -6,2 -12,3 -18,3zm-1 -67c-5,0 -8,2 -10,5 -3,3 -4,7 -5,12l0 0 27 0 0 -2c0,-4 -1,-8 -3,-11 -2,-2 -5,-4 -9,-4zm88 4l-8 -1c-3,0 -6,1 -8,2 -2,2 -4,4 -5,6l0 54 -21 0 0 -80 20 0 1 12c1,-4 4,-8 7,-10 3,-2 6,-3 10,-3 1,0 2,0 3,0 1,0 2,0 3,1l-2 19z"/>
   <path class="fil3" d="M805 1537c0,3 1,5 2,7 2,2 4,3 8,3 3,0 5,-1 7,-3 1,-2 2,-4 2,-7 0,-2 -1,-4 -2,-6 -2,-2 -4,-3 -7,-3 -4,0 -6,1 -8,3 -1,2 -2,4 -2,6z"/>
   <g>
    <path class="fil4 str6" d="M882 1521l8 24 12 0 -31 -95 -10 0 -31 95 12 0 8 -24 32 0zm-29 -11l13 -42 13 42 -26 0zm53 -60l0 10 23 0 0 75 -23 0 0 10 58 0 0 -10 -23 0 0 -75 23 0 0 -10 -58 0z"/>
    <path id="1" class="fil6" d="M882 1521l8 24 12 0 -31 -95 -10 0 -31 95 12 0 8 -24 32 0zm-29 -11l13 -42 13 42 -26 0zm53 -60l0 10 23 0 0 75 -23 0 0 10 58 0 0 -10 -23 0 0 -75 23 0 0 -10 -58 0z"/>
   </g>
  </g>
  <g>
   <path class="fil3" d="M1253 1668c-3,2 -3,6 -2,10l-5 5c-3,-6 -3,-14 2,-19l11 -12c6,-7 16,-8 23,-2l0 0c6,6 7,17 1,23l-11 12c-4,5 -12,7 -18,4l5 -5c3,1 6,0 9,-3l10 -12c4,-4 4,-10 0,-14 -4,-4 -11,-3 -14,1l-11 12zm-21 4c-4,4 -4,11 0,14 4,4 11,4 14,0l11 -12c3,-3 3,-7 2,-10l5 -5c3,6 3,13 -2,19l-11 12c-6,6 -16,7 -23,1l0 0c-6,-6 -7,-16 -1,-23l11 -12c4,-5 12,-7 18,-4l-5 5c-3,0 -6,1 -9,3l-10 12z"/>
   <path class="fil3" d="M1180 1766l49 0 0 16 -70 0 0 -107 21 0 0 91zm84 16l-21 0 0 -80 21 0 0 80zm38 -80l1 12c2,-4 6,-7 10,-10 3,-2 8,-3 13,-3 8,0 14,2 19,8 4,5 6,13 6,24l0 49 -21 0 0 -49c0,-5 -1,-9 -3,-12 -2,-2 -5,-3 -9,-3 -4,0 -6,0 -9,1 -2,2 -4,3 -6,5l0 58 -21 0 0 -80 20 0zm93 47l-6 0 0 33 -21 0 0 -115 21 0 0 65 5 0 19 -30 25 0 -26 37 30 43 -25 0 -22 -33zm87 35c-12,0 -21,-4 -28,-11 -7,-7 -10,-17 -10,-28l0 -3c0,-12 3,-22 10,-30 6,-7 15,-11 27,-11 10,0 19,3 24,10 6,6 9,15 9,26l0 12 -48 0 0 0c0,5 2,10 5,13 3,4 7,5 13,5 5,0 9,0 13,-1 3,-1 6,-3 10,-5l6 14c-3,2 -8,5 -13,6 -6,2 -12,3 -18,3zm-1 -66c-5,0 -8,1 -10,4 -3,3 -4,7 -5,12l0 0 27 0 0 -1c0,-5 -1,-9 -3,-11 -2,-3 -5,-4 -9,-4zm88 3l-8 0c-3,0 -6,0 -8,2 -2,1 -4,3 -5,5l0 54 -21 0 0 -80 20 0 1 12c1,-4 4,-7 7,-10 3,-2 6,-3 10,-3 1,0 2,0 3,0 1,0 2,0 3,1l-2 19z"/>
   <path class="fil6" d="M1639 1758l8 25 12 0 -31 -96 -10 0 -31 96 12 0 8 -25 32 0zm-29 -11l13 -41 13 41 -26 0zm53 -60l0 10 23 0 0 75 -23 0 0 11 58 0 0 -11 -23 0 0 -75 23 0 0 -10 -58 0z"/>
   <path class="fil6" d="M1562 1775c0,2 1,4 2,6 2,2 4,3 8,3 3,0 5,-1 7,-3 1,-2 2,-4 2,-6 0,-3 -1,-5 -2,-7 -2,-2 -4,-3 -7,-3 -4,0 -6,1 -8,3 -1,2 -2,4 -2,7z"/>
  </g>
  <g>
   <path class="fil6" d="M1253 1207c-3,2 -3,6 -2,9l-5 5c-3,-6 -3,-13 2,-19l11 -12c6,-6 16,-7 23,-1l0 0c6,6 7,16 1,23l-11 12c-4,5 -12,7 -18,4l5 -5c3,1 6,-1 9,-3l10 -12c4,-4 4,-11 0,-14 -4,-4 -11,-4 -14,1l-11 12zm-21 4c-4,4 -4,10 0,14 4,4 11,3 14,-1l11 -12c3,-2 3,-6 2,-10l5 -4c3,5 3,13 -2,18l-11 12c-6,7 -16,8 -23,2l0 0c-6,-6 -7,-17 -1,-23l11 -12c4,-5 12,-7 18,-4l-5 5c-3,-1 -6,0 -9,3l-10 12z"/>
   <path class="fil3" d="M1180 1305l49 0 0 16 -70 0 0 -108 21 0 0 92zm84 16l-21 0 0 -80 21 0 0 80zm38 -80l1 12c2,-4 6,-8 10,-10 3,-2 8,-3 13,-3 8,0 14,2 19,7 4,6 6,14 6,25l0 49 -21 0 0 -49c0,-6 -1,-10 -3,-12 -2,-2 -5,-4 -9,-4 -4,0 -6,1 -9,2 -2,1 -4,3 -6,5l0 58 -21 0 0 -80 20 0zm93 47l-6 0 0 33 -21 0 0 -115 21 0 0 65 5 0 19 -30 25 0 -26 37 30 43 -25 0 -22 -33zm87 35c-12,0 -21,-4 -28,-11 -7,-8 -10,-17 -10,-29l0 -2c0,-12 3,-22 10,-30 6,-8 15,-11 27,-11 10,0 19,3 24,10 6,6 9,15 9,26l0 11 -48 0 0 1c0,5 2,10 5,13 3,4 7,5 13,5 5,0 9,0 13,-1 3,-1 6,-3 10,-5l6 14c-3,2 -8,4 -13,6 -6,2 -12,3 -18,3zm-1 -67c-5,0 -8,2 -10,5 -3,3 -4,7 -5,12l0 0 27 0 0 -2c0,-4 -1,-8 -3,-11 -2,-2 -5,-4 -9,-4zm88 4l-8 -1c-3,0 -6,1 -8,2 -2,2 -4,4 -5,6l0 54 -21 0 0 -80 20 0 1 12c1,-4 4,-8 7,-10 3,-2 6,-3 10,-3 1,0 2,0 3,0 1,0 2,0 3,1l-2 19z"/>
   <g>
    <path class="fil4 str7" d="M1639 1297l8 24 12 0 -31 -95 -10 0 -31 95 12 0 8 -24 32 0zm-29 -11l13 -42 13 42 -26 0zm53 -60l0 10 23 0 0 75 -23 0 0 10 58 0 0 -10 -23 0 0 -75 23 0 0 -10 -58 0z"/>
    <path id="1" class="fil2" d="M1639 1297l8 24 12 0 -31 -95 -10 0 -31 95 12 0 8 -24 32 0zm-29 -11l13 -42 13 42 -26 0zm53 -60l0 10 23 0 0 75 -23 0 0 10 58 0 0 -10 -23 0 0 -75 23 0 0 -10 -58 0z"/>
   </g>
   <path class="fil3" d="M1562 1313c0,3 1,5 2,7 2,2 4,3 8,3 3,0 5,-1 7,-3 1,-2 2,-4 2,-7 0,-2 -1,-4 -2,-6 -2,-2 -4,-3 -7,-3 -4,0 -6,1 -8,3 -1,2 -2,4 -2,6z"/>
  </g>
  <g>
   <path class="fil3" d="M1253 1430c-3,3 -3,7 -2,10l-5 5c-3,-6 -3,-13 2,-19l11 -12c6,-6 16,-7 23,-1l0 0c6,6 7,16 1,23l-11 12c-4,5 -12,7 -18,4l5 -5c3,1 6,-1 9,-3l10 -12c4,-4 4,-11 0,-14 -4,-4 -11,-4 -14,1l-11 11zm-21 5c-4,4 -4,10 0,14 4,4 11,3 14,-1l11 -12c3,-2 3,-6 2,-10l5 -4c3,5 3,13 -2,18l-11 12c-6,7 -16,8 -23,2l0 0c-6,-6 -7,-17 -1,-23l11 -12c4,-5 12,-7 18,-4l-5 5c-3,-1 -6,0 -9,3l-10 12z"/>
   <path class="fil6" d="M1180 1529l49 0 0 16 -70 0 0 -108 21 0 0 92zm84 16l-21 0 0 -80 21 0 0 80zm38 -80l1 12c2,-5 6,-8 10,-10 3,-2 8,-3 13,-3 8,0 14,2 19,7 4,6 6,14 6,25l0 49 -21 0 0 -49c0,-6 -1,-10 -3,-12 -2,-2 -5,-4 -9,-4 -4,0 -6,1 -9,2 -2,1 -4,3 -6,5l0 58 -21 0 0 -80 20 0zm93 47l-6 0 0 33 -21 0 0 -115 21 0 0 65 5 0 19 -30 25 0 -26 37 30 43 -25 0 -22 -33zm87 35c-12,0 -21,-4 -28,-11 -7,-8 -10,-17 -10,-29l0 -3c0,-12 3,-21 10,-29 6,-8 15,-11 27,-11 10,0 19,3 24,10 6,6 9,15 9,26l0 11 -48 0 0 1c0,5 2,10 5,13 3,3 7,5 13,5 5,0 9,0 13,-1 3,-1 6,-3 10,-5l6 14c-3,2 -8,4 -13,6 -6,2 -12,3 -18,3zm-1 -67c-5,0 -8,2 -10,5 -3,3 -4,7 -5,12l0 0 27 0 0 -2c0,-4 -1,-8 -3,-11 -2,-2 -5,-4 -9,-4zm88 4l-8 -1c-3,0 -6,1 -8,2 -2,2 -4,4 -5,6l0 54 -21 0 0 -80 20 0 1 12c1,-4 4,-8 7,-10 3,-2 6,-3 10,-3 1,0 2,0 3,0 1,0 2,0 3,1l-2 19z"/>
   <path class="fil3" d="M1562 1537c0,3 1,5 2,7 2,2 4,3 8,3 3,0 5,-1 7,-3 1,-2 2,-4 2,-7 0,-2 -1,-4 -2,-6 -2,-2 -4,-3 -7,-3 -4,0 -6,1 -8,3 -1,2 -2,4 -2,6z"/>
   <path class="fil3" d="M1639 1521l8 24 12 0 -31 -95 -10 0 -31 95 12 0 8 -24 32 0zm-29 -11l13 -42 13 42 -26 0zm53 -60l0 10 23 0 0 75 -23 0 0 10 58 0 0 -10 -23 0 0 -75 23 0 0 -10 -58 0z"/>
  </g>
  <path class="fil0" d="M1950 1743c-23,25 -21,65 4,88 25,23 65,20 88,-5l67 -74c15,-17 19,-41 12,-61l28 -31c21,36 18,84 -12,117l-67 75c-37,41 -100,44 -141,7l0 0c-41,-37 -44,-100 -8,-141l67 -74c29,-33 75,-42 113,-26l-29 31c-20,-3 -41,4 -55,20l-67 74zm131 -27c-15,17 -19,40 -12,61l-28 31c-21,-37 -18,-85 12,-118l67 -74c37,-41 100,-44 141,-8l0 0c41,37 44,101 8,142l-67 74c-29,32 -75,41 -113,26l29 -32c20,3 41,-3 55,-19l67 -75c23,-25 21,-65 -4,-87 -25,-23 -65,-21 -88,4l-67 75z"/>
  <path class="fil5 str1" d="M2420 1743c-22,25 -20,65 5,88 25,23 65,20 88,-5l67 -74c15,-17 19,-41 12,-61l28 -31c21,36 17,84 -12,117l-67 75c-37,41 -101,44 -141,7l0 0c-41,-37 -45,-100 -8,-141l67 -74c29,-33 74,-42 112,-26l-28 31c-20,-3 -41,4 -56,20l-67 74zm132 -27c-15,17 -19,40 -12,61l-28 31c-21,-37 -18,-85 12,-118l67 -74c37,-41 100,-44 141,-8l0 0c41,37 44,101 7,142l-67 74c-28,32 -74,41 -112,26l28 -32c21,3 42,-3 56,-19l67 -75c23,-25 21,-65 -4,-87 -26,-23 -65,-21 -88,4l-67 75z"/>
  <path class="fil8" d="M2905 1743c-23,25 -21,65 4,88 26,23 65,20 88,-5l67 -74c15,-17 19,-41 12,-61l28 -31c21,36 18,84 -12,117l-67 75c-37,41 -100,44 -141,7l0 0c-41,-37 -44,-100 -7,-141l67 -74c28,-33 74,-42 112,-26l-29 31c-20,-3 -41,4 -55,20l-67 74zm131 -27c-15,17 -19,40 -12,61l-28 31c-21,-37 -18,-85 12,-118l67 -74c37,-41 100,-44 141,-8l0 0c41,37 45,101 8,142l-67 74c-29,32 -74,41 -112,26l28 -32c20,3 41,-3 56,-19l67 -75c22,-25 20,-65 -5,-87 -25,-23 -65,-21 -88,4l-67 75z"/>
 </g>
</svg>
