<?xml version="1.0" encoding="UTF-8"?>
<!DOCTYPE svg PUBLIC "-//W3C//DTD SVG 1.1//EN" "http://www.w3.org/Graphics/SVG/1.1/DTD/svg11.dtd">
<!-- Creator: CorelDRAW X7 -->
<svg xmlns="http://www.w3.org/2000/svg" xml:space="preserve" width="3.175E+006px" height="952500px" version="1.1" style="shape-rendering:geometricPrecision; text-rendering:geometricPrecision; image-rendering:optimizeQuality; fill-rule:evenodd; clip-rule:evenodd"
viewBox="0 0 3175000 952501"
 xmlns:xlink="http://www.w3.org/1999/xlink">
 <defs>
  <style type="text/css">
   <![CDATA[
    .str1 {stroke:currentColor;stroke-width:2857.5}
    .str0 {stroke:currentColor;stroke-width:2857.5;stroke-linecap:round;stroke-linejoin:round}
    .fil1 {fill:currentColor}
    .fil0 {fill:currentColor;fill-rule:nonzero}
   ]]>
  </style>
 </defs>
 <g id="Layer_x0020_1">
  <metadata id="CorelCorpID_0Corel-Layer"/>
  <g id="_2901040235248">
   <g>
    <g>
     <path class="fil0 str0" d="M2440127 623104l0 -323501 32482 0 0 126079c5565,-11794 14389,-20472 26550,-26033 12162,-5561 28182,-8381 48207,-8381 29962,0 50951,6086 62966,18172 12015,12087 18023,33375 18023,63777l0 149887 -33822 0 0 -142691c0,-23880 -3483,-39600 -10530,-47171 -7042,-7489 -20692,-11265 -40939,-11265 -23955,0 -41381,5411 -52507,16312 -11048,10826 -16613,28106 -16613,51915l0 132900 -33817 0zm-883820 0l0 -228720 32479 0 0 31298c5565,-11794 14389,-20472 26550,-26033 12162,-5561 28182,-8381 48207,-8381 29962,0 50955,6086 62966,18172 12015,12087 18022,33375 18022,63777l0 149887 -33821 0 0 -142691c0,-23880 -3484,-39600 -10530,-47171 -7042,-7489 -20692,-11265 -40935,-11265 -23959,0 -41385,5486 -52511,16387 -11048,10976 -16613,28178 -16613,51840l0 132900 -33814 0zm-459236 0l0 -228720 32482 0 0 31298c5565,-11794 14389,-20472 26550,-26033 12162,-5561 28182,-8381 48207,-8381 29962,0 50951,6086 62966,18172 12015,12087 18023,33375 18023,63777l0 149887 -33822 0 0 -142691c0,-23880 -3484,-39600 -10530,-47171 -7042,-7489 -20692,-11265 -40939,-11265 -23955,0 -41381,5486 -52507,16387 -11048,10976 -16613,28178 -16613,51840l0 132900 -33817 0zm-460621 -68081l34261 0 0 5190c0,14085 4365,23835 13057,29145 8655,5291 26104,7935 52358,7935 29366,0 47452,-2696 54288,-8081 6803,-5363 10234,-15720 10234,-31073 0,-14910 -2839,-24907 -8377,-29891 -5584,-5021 -19515,-8081 -41757,-9270 -8302,-443 -19428,-941 -33446,-1335 -30697,-863 -48941,-2989 -54735,-6229 -8659,-4837 -14876,-11362 -18540,-19582 -3675,-8239 -5561,-20097 -5561,-35595 0,-25365 6465,-42480 19357,-51469 12840,-8955 41235,-13500 85137,-13500 34038,0 57033,4301 69120,12832 12090,8532 18172,23584 18172,45015l-33821 0 0 -2148c0,-10159 -4373,-17149 -13125,-20985 -8816,-3870 -26258,-5790 -52286,-5790 -25287,0 -41292,2325 -48282,6971 -6945,4620 -10458,14317 -10458,29074 0,8970 637,15221 1931,18836 1297,3649 3619,6416 6975,8231 6799,3671 21877,5719 45240,6308 5921,146 10526,318 13717,446 19129,761 34114,1740 45019,2962 10894,1219 18585,2959 23284,5119 10132,4661 17400,11254 21656,19950 4268,8726 6383,21360 6383,37894 0,16766 -2082,29595 -6308,38272 -4226,8678 -11782,16294 -22620,23063 -4950,3090 -12982,5460 -24105,6825 -11197,1372 -26696,2077 -46575,2077 -40567,0 -67432,-4650 -80542,-14017 -13140,-9390 -19651,-26404 -19651,-51101l0 -6079zm265347 157076l-70883 0 0 -31230 70973 0c14239,0 22222,-3858 29599,-15858 2928,-4770 5850,-10804 8501,-18173l3337 -9281 -21251 -60949 -63517 -182224 33892 0 68010 196755 67560 -196755 33447 0 -86250 248745c-9420,26847 -18983,45094 -28774,54657 -7763,7586 -17625,12142 -29622,13698 -5302,687 -9851,615 -15022,615zm491708 -289084c-22406,0 -40853,18443 -40853,40853l0 89752c0,22407 18447,40853 40853,40853l54592 0c22410,0 40853,-18446 40853,-40853l0 -89752c0,-22410 -18443,-40853 -40853,-40853l-54592 0zm0 -31747l54592 0c39934,0 72600,32666 72600,72600l0 89752c0,39930 -32666,72600 -72600,72600l-54592 0c-39930,0 -72600,-32670 -72600,-72600l0 -89752c0,-39934 32670,-72600 72600,-72600zm648428 31147l54592 0c22804,0 41457,18664 41457,41457l0 19995 -137505 0 0 -19995c0,-22804 18652,-41457 41456,-41457zm96049 123739l0 7466c0,22804 -18653,41457 -41457,41457l-54592 0c-22804,0 -41456,-18653 -41456,-41457l0 -38610 32692 0 104813 0 31140 0 0 -51142c0,-39934 -32670,-72600 -72604,-72600l-54589 0c-39934,0 -72604,32666 -72604,72600l0 89752c0,39930 32670,72600 72604,72600l54589 0c39934,0 72604,-32670 72604,-72600l0 -7466 -31140 0zm139354 -123739l54588 0c22804,0 41457,18653 41457,41457l0 13717 31140 0 0 -13721c0,-39934 -32670,-72600 -72600,-72600l-54593 0c-39930,0 -72600,32666 -72600,72600l0 89752c0,39930 32670,72600 72600,72600l54593 0c39930,0 72600,-32670 72600,-72600l0 -13717 -31140 0 0 13717c0,22804 -18653,41457 -41457,41457l-54588 0c-22804,0 -41457,-18653 -41457,-41457l0 -89748c0,-22804 18653,-41457 41457,-41457zm-459132 -79650l0 48503 -38066 0 0 33604 38066 0 0 198232 31151 0 0 -198232 91467 0 0 -33604 -91467 0 0 -48503 -31151 0z"/>
    </g>
    <path class="fil0 str1" d="M550890 317411c0,8022 1883,13861 5614,17521 3735,3633 9750,5463 18023,5463 7466,0 12453,-1353 14910,-4035 2482,-2681 3708,-8898 3708,-18645l0 -13207c0,-9803 -1226,-16043 -3708,-18724 -2457,-2681 -7444,-4035 -14910,-4035 -8273,0 -14288,1830 -18023,5464 -3731,3660 -5614,9498 -5614,17595l0 12603zm760966 37189l-1702 -4882 -3143 -9011 0 -8 -23801 -68273 11452 0 22984 66492 22830 -66492 11303 0 -29145 84057c-3184,9075 -6417,15240 -9724,18472 -3308,3233 -7744,4838 -13335,4838 -825,0 -1751,-26 -2756,-101 -1002,-75 -2078,-225 -3259,-402l75 -10023c352,48 780,75 1279,101 528,22 1252,49 2182,49 3506,0 6240,-803 8168,-2382 1931,-1605 3761,-4710 5463,-9296l1129 -3139zm-772392 -82174l10976 0 0 12030c1879,-4511 4763,-7818 8697,-9922 3933,-2108 9225,-3161 15813,-3161 11003,0 18773,2283 23284,6843 4538,4538 6791,12454 6791,23708l0 18371c0,11202 -2253,19099 -6791,23633 -4511,4564 -12281,6844 -23284,6844 -6363,0 -11403,-953 -15135,-2835 -3761,-1879 -6716,-4962 -8925,-9222l0 40628 -11426 0 0 -106917zm138668 45289l0 -13207c0,-9750 -1226,-15942 -3709,-18597 -2479,-2681 -7669,-4012 -15589,-4012l-5362 0c-7894,0 -13031,1331 -15461,3960 -2434,2659 -3634,8872 -3634,18649l0 13207c0,9822 1226,16065 3656,18720 2456,2633 7594,3960 15439,3960l5362 0c7872,0 13058,-1353 15567,-4035 2478,-2681 3731,-8898 3731,-18645zm-24510 33057c-11554,0 -19624,-2258 -24233,-6769 -4586,-4485 -6892,-12405 -6892,-23708l0 -18371c0,-11351 2280,-19271 6866,-23783 4560,-4511 12608,-6768 24109,-6768l5362 0c11554,0 19650,2257 24263,6768 4609,4512 6915,12432 6915,23783l0 18371c0,11352 -2280,19272 -6866,23760 -4587,4485 -12657,6717 -24184,6717l-5340 0zm49474 -78346l10725 0 17696 66492 17741 -66492 15791 0 17918 66492 17767 -66492 10928 0 -20925 77292 -15765 0 -17693 -66289 -18071 66289 -15487 0 -20625 -77292zm133507 31129l43755 0 0 -3007c0,-7245 -1301,-12158 -3885,-14764 -2606,-2580 -7744,-3885 -15412,-3885l-5363 0c-7642,0 -12731,1305 -15289,3885 -2531,2606 -3806,7519 -3806,14764l0 3007zm19245 47217c-11554,0 -19624,-2258 -24232,-6769 -4587,-4485 -6893,-12405 -6893,-23734l0 -18319c0,-11377 2280,-19297 6866,-23809 4560,-4511 12608,-6768 24109,-6768l5363 0c11553,0 19650,2257 24262,6768 4609,4512 6915,12432 6915,23809l0 11678 -55635 75c-52,776 -75,1653 -101,2583 -26,953 -53,2281 -53,3983 0,7995 1279,13335 3837,16043 2531,2730 7668,4083 15412,4083l5363 0c6892,0 11681,-1001 14385,-2981 2685,-1980 4263,-5441 4687,-10402l11955 0c-577,8396 -3281,14437 -8096,18168 -4811,3735 -12405,5592 -22804,5592l-5340 0zm56843 -1054l0 -77292 11126 0 0 10575c1627,-4035 4136,-6967 7567,-8820 3435,-1878 7973,-2808 13662,-2808 8418,0 14332,2032 17719,6090 3408,4087 5111,11280 5111,21603l0 604 -11580 0 0 -2280c0,-6169 -975,-10327 -2929,-12457 -1958,-2130 -5640,-3184 -11078,-3184 -6341,0 -10927,1804 -13762,5389 -2831,3611 -4260,9498 -4260,17670l0 44910 -11576 0zm79222 -46163l43755 0 0 -3007c0,-7245 -1301,-12158 -3885,-14764 -2606,-2580 -7743,-3885 -15412,-3885l-5363 0c-7642,0 -12731,1305 -15288,3885 -2532,2606 -3807,7519 -3807,14764l0 3007zm19245 47217c-11553,0 -19623,-2258 -24232,-6769 -4586,-4485 -6893,-12405 -6893,-23734l0 -18319c0,-11377 2280,-19297 6867,-23809 4560,-4511 12607,-6768 24108,-6768l5363 0c11554,0 19650,2257 24262,6768 4609,4512 6915,12432 6915,23809l0 11678 -55635 75c-52,776 -75,1653 -101,2583 -26,953 -52,2281 -52,3983 0,7995 1278,13335 3836,16043 2531,2730 7669,4083 15412,4083l5363 0c6892,0 11681,-1001 14385,-2981 2685,-1980 4264,-5441 4687,-10402l11955 0c-577,8396 -3281,14437 -8096,18168 -4811,3735 -12405,5592 -22804,5592l-5340 0zm107967 -33361l0 -12603c0,-8097 -1879,-13935 -5614,-17595 -3758,-3634 -9746,-5464 -17966,-5464 -7497,0 -12484,1354 -14963,4035 -2482,2681 -3709,8921 -3709,18724l0 13207c0,9747 1227,15964 3709,18645 2479,2682 7466,4035 14963,4035 8220,0 14208,-1830 17966,-5463 3735,-3660 5614,-9499 5614,-17521zm453 20427c-1830,4511 -4687,7796 -8572,9851 -3885,2055 -9173,3083 -15814,3083 -11029,0 -18821,-2280 -23359,-6867 -4560,-4590 -6840,-12457 -6840,-23610l0 -18371c0,-11201 2280,-19095 6840,-23681 4538,-4587 12330,-6870 23359,-6870 6364,0 11404,952 15113,2835 3735,1878 6667,4961 8820,9221l0 -43031 11430 0 0 109320 -10977 0 0 -11880zm97290 -33030l0 12603c0,8022 1883,13861 5614,17521 3735,3633 9750,5463 18023,5463 7466,0 12453,-1353 14910,-4035 2482,-2681 3708,-8898 3708,-18645l0 -13207c0,-9803 -1226,-16043 -3708,-18724 -2457,-2681 -7444,-4035 -14910,-4035 -8273,0 -14288,1830 -18023,5464 -3731,3660 -5614,9498 -5614,17595zm-11426 44910l0 -109320 11426 0 0 43031c2209,-4260 5164,-7343 8925,-9221 3732,-1883 8772,-2835 15135,-2835 11003,0 18773,2283 23284,6843 4538,4538 6791,12454 6791,23708l0 18371c0,11202 -2253,19099 -6791,23633 -4511,4564 -12281,6844 -23284,6844 -6641,0 -11928,-1054 -15836,-3135 -3911,-2078 -6795,-5337 -8674,-9799l0 11880 -10976 0z"/>
   </g>
   <path class="fil1 str1" d="M543132 167018l2088733 0c72648,0 132082,59445 132082,132082l0 354301c0,72637 -59445,132082 -132082,132082l-2088733 0c-72638,0 -132083,-59434 -132083,-132082l0 -354301c0,-72649 59434,-132082 132083,-132082zm0 15873l2088733 0c63915,0 116208,52305 116208,116209l0 354301c0,63903 -52305,116208 -116208,116208l-2088733 0c-63904,0 -116209,-52293 -116209,-116208l0 -354301c0,-63915 52294,-116209 116209,-116209z"/>
   <path class="fil1 str1" d="M543132 198765l2088733 0c55185,0 100335,45218 100335,100335l0 354301c0,55117 -45218,100335 -100335,100335l-2088733 0c-55118,0 -100335,-45150 -100335,-100335l0 -354301c0,-55185 45150,-100335 100335,-100335zm0 15874l2088733 0c46455,0 84461,38074 84461,84461l0 354301c0,46387 -38074,84461 -84461,84461l-2088733 0c-46388,0 -84462,-38006 -84462,-84461l0 -354301c0,-46455 38007,-84461 84462,-84461z"/>
  </g>
 </g>
</svg>
