<?xml version="1.0" encoding="UTF-8"?>
<!DOCTYPE svg PUBLIC "-//W3C//DTD SVG 1.1//EN" "http://www.w3.org/Graphics/SVG/1.1/DTD/svg11.dtd">
<!-- Creator: CorelDRAW X7 -->
<svg xmlns="http://www.w3.org/2000/svg" xml:space="preserve" width="800px" height="200px" version="1.1" style="shape-rendering:geometricPrecision; text-rendering:geometricPrecision; image-rendering:optimizeQuality; fill-rule:evenodd; clip-rule:evenodd"
viewBox="0 0 800 200"
 xmlns:xlink="http://www.w3.org/1999/xlink">
 <defs>
  <style type="text/css">
   <![CDATA[
    .str0 {stroke:currentColor;stroke-width:0.900002}
    .fil0 {fill:currentColor;fill-rule:nonzero}
   ]]>
  </style>
 </defs>
 <g id="Layer_x0020_1">
  <metadata id="CorelCorpID_0Corel-Layer"/>
  <path class="fil0 str0" d="M654 137l0 -102 11 0 0 40c1,-4 4,-7 8,-8 4,-2 9,-3 15,-3 10,0 16,2 20,6 4,3 6,10 6,20l0 47 -11 0 0 -45c0,-8 -1,-12 -3,-15 -3,-2 -7,-3 -13,-3 -8,0 -13,1 -17,5 -3,3 -5,9 -5,16l0 42 -11 0zm-278 0l0 -72 10 0 0 10c2,-4 5,-7 9,-8 3,-2 9,-3 15,-3 9,0 16,2 20,6 3,3 5,10 5,20l0 47 -10 0 0 -45c0,-8 -1,-12 -4,-15 -2,-2 -6,-3 -13,-3 -7,0 -13,1 -16,5 -4,3 -5,9 -5,16l0 42 -11 0zm-145 0l0 -72 11 0 0 10c1,-4 4,-7 8,-8 4,-2 9,-3 15,-3 10,0 16,2 20,6 4,3 6,10 6,20l0 47 -11 0 0 -45c0,-8 -1,-12 -3,-15 -3,-2 -7,-3 -13,-3 -8,0 -13,1 -17,5 -3,3 -5,9 -5,16l0 42 -11 0zm-145 -22l11 0 0 2c0,5 1,8 4,9 3,2 8,3 17,3 9,0 15,-1 17,-3 2,-1 3,-5 3,-10 0,-4 -1,-7 -3,-9 -1,-2 -6,-2 -13,-3 -2,0 -6,0 -10,0 -10,-1 -16,-1 -18,-2 -2,-2 -4,-4 -5,-6 -2,-3 -2,-7 -2,-12 0,-8 2,-13 6,-16 4,-3 13,-4 27,-4 11,0 18,1 22,4 3,3 5,7 5,14l-10 0 0 -1c0,-3 -2,-5 -5,-6 -2,-1 -8,-2 -16,-2 -8,0 -13,1 -15,2 -2,2 -3,5 -3,9 0,3 0,5 0,6 1,1 1,2 2,3 2,1 7,2 15,2 1,0 3,0 4,0 6,0 11,1 14,1 4,0 6,1 7,2 4,1 6,3 7,6 2,3 2,7 2,12 0,5 0,9 -2,12 -1,3 -3,5 -7,7 -1,1 -4,2 -7,2 -4,1 -9,1 -15,1 -13,0 -21,-2 -25,-5 -5,-2 -7,-8 -7,-16l0 -2zm84 50l-22 0 0 -10 22 0c4,0 7,-1 9,-5 1,-1 2,-3 3,-6l1 -3 -7 -19 -20 -57 11 0 21 62 22 -62 10 0 -27 78c-3,9 -6,14 -9,17 -2,3 -6,4 -9,5 -2,0 -3,0 -5,0zm155 -91c-7,0 -13,6 -13,13l0 28c0,7 6,13 13,13l17 0c7,0 13,-6 13,-13l0 -28c0,-7 -6,-13 -13,-13l-17 0zm0 -10l17 0c13,0 23,10 23,23l0 28c0,13 -10,23 -23,23l-17 0c-13,0 -23,-10 -23,-23l0 -28c0,-13 10,-23 23,-23zm204 10l17 0c7,0 13,6 13,13l0 6 -43 0 0 -6c0,-7 6,-13 13,-13zm30 39l0 2c0,7 -6,13 -13,13l-17 0c-7,0 -13,-6 -13,-13l0 -12 10 0 33 0 10 0 0 -16c0,-13 -10,-23 -23,-23l-17 0c-13,0 -23,10 -23,23l0 28c0,13 10,23 23,23l17 0c13,0 23,-10 23,-23l0 -2 -10 0zm44 -39l17 0c8,0 13,6 13,13l0 4 10 0 0 -4c0,-13 -10,-23 -23,-23l-17 0c-12,0 -23,10 -23,23l0 28c0,13 11,23 23,23l17 0c13,0 23,-10 23,-23l0 -4 -10 0 0 4c0,7 -5,13 -13,13l-17 0c-7,0 -13,-6 -13,-13l0 -28c0,-7 6,-13 13,-13zm-144 -25l0 15 -12 0 0 10 12 0 0 63 9 0 0 -63 29 0 0 -10 -29 0 0 -15 -9 0z"/>
 </g>
</svg>
